<svg xmlns="http://www.w3.org/2000/svg" width="29.447" height="29.449" viewBox="0 0 29.447 29.449">
  <g id="Group_193" data-name="Group 193" transform="translate(-180.813 -171.652)">
    <path id="Path_432" data-name="Path 432" d="M222.068,251.24a7.725,7.725,0,0,1-1.754-3.384.922.922,0,0,0-.918-.891h0a.921.921,0,0,0-.921.922c0,1.773,1.816,4.082,2.171,4.515a.915.915,0,0,0,.6.368.93.93,0,0,0,.146.012.921.921,0,0,0,.743-1.462A.9.9,0,0,0,222.068,251.24Z" transform="translate(-31.086 -62.166)" fill="#1a1818"/>
    <path id="Path_433" data-name="Path 433" d="M293.037,246.98h0a.922.922,0,0,0-.92.889,7.758,7.758,0,0,1-1.757,3.386l-.018.022a.922.922,0,0,0,.215,1.284.909.909,0,0,0,.53.169.942.942,0,0,0,.687-.3c.223-.269,2.181-2.683,2.181-4.529A.923.923,0,0,0,293.037,246.98Z" transform="translate(-90.266 -62.178)" fill="#1a1818"/>
    <path id="Path_434" data-name="Path 434" d="M260.829,246.98a.922.922,0,0,0-.921.921v3.945a.922.922,0,0,0,.921.918h0a.923.923,0,0,0,.919-.919V247.9A.922.922,0,0,0,260.829,246.98Z" transform="translate(-65.287 -62.178)" fill="#1a1818"/>
    <path id="Path_435" data-name="Path 435" d="M209.443,178.369a7.456,7.456,0,0,0-6.67-4.085h-.005a7.191,7.191,0,0,0-1.144.109,8.124,8.124,0,0,0-12.17,0,7.2,7.2,0,0,0-1.147-.109h0a7.49,7.49,0,0,0-3.532,14.095l-.013,9.774A2.948,2.948,0,0,0,187.7,201.1h15.673a2.951,2.951,0,0,0,2.944-2.944v-9.788A7.5,7.5,0,0,0,209.443,178.369ZM186.6,195.843h17.879l0,2.317a1.109,1.109,0,0,1-1.108,1.1h-15.67a1.107,1.107,0,0,1-1.106-1.106Zm18.169-8.709a.92.92,0,0,0-.274.53.867.867,0,0,0-.009.148v6.194h-17.88l.008-6.179a.94.94,0,0,0-.009-.153.923.923,0,0,0-.145-.38.9.9,0,0,0-.274-.268.929.929,0,0,0-.139-.073,5.652,5.652,0,0,1,2.228-10.831,8.109,8.109,0,0,0-.887,3.682.922.922,0,0,0,.921.92h0a.922.922,0,0,0,.92-.921,6.312,6.312,0,0,1,12.623,0,.921.921,0,1,0,1.842,0,8.1,8.1,0,0,0-.887-3.682,5.65,5.65,0,0,1,2.234,10.821l-.316.139Z" fill="#1a1818"/>
  </g>
</svg>
