<svg xmlns="http://www.w3.org/2000/svg" width="35.382" height="53.213" viewBox="0 0 35.382 53.213">
  <g id="Group_182" data-name="Group 182" transform="translate(-282.571 -72.338)">
    <path id="Path_413" data-name="Path 413" d="M307.412,105.321c4.843,0,8-2.738,8-6.95s-3.159-6.95-7.933-6.95-7.932,2.738-7.932,6.95S302.637,105.321,307.412,105.321Z" transform="translate(-7.922 -8.904)" fill="none"/>
    <path id="Path_414" data-name="Path 414" d="M296.049,100.629a19.7,19.7,0,0,0,5.967.913c8.494,0,14.181-4.843,14.181-12.074a11.327,11.327,0,0,0-2.176-6.879c2.176-.351,6.388-2.808,6.388-9.126l-5.265-1.123c0,4.072-1.053,6.81-3.439,7.932a16.26,16.26,0,0,0-9.758-2.878c-8.495,0-14.111,4.844-14.111,12.074a11.031,11.031,0,0,0,3.931,8.775,6.842,6.842,0,0,0-3.86,3.313h5.809A4.592,4.592,0,0,1,296.049,100.629Zm5.967-18.112c4.774,0,7.933,2.738,7.933,6.95s-3.159,6.95-8,6.95c-4.774,0-7.863-2.738-7.863-6.95S297.242,82.517,302.016,82.517Z" transform="translate(-2.457)"/>
    <path id="Path_415" data-name="Path 415" d="M288.187,134.961c-3.72,1.334-5.616,3.791-5.616,7.02,0,5.616,5.476,9.126,17.41,9.126,12.636,0,17.269-4.633,17.269-10.319,0-6.108-4.7-9.337-12.566-9.337H297.8c-4.563,0-7.231-.562-7.231-2.878a1.876,1.876,0,0,1,.685-1.461H285.45a5.2,5.2,0,0,0-.492,2.233A6.036,6.036,0,0,0,288.187,134.961Zm7.933,1.755h7.371c4.984,0,7.652.7,7.652,4.072,0,3.58-3.159,5.125-11.162,5.125-8.073,0-11.3-1.474-11.3-4.844C288.679,138.682,290.293,136.716,296.12,136.716Z" transform="translate(0 -25.557)" fill="#6468e6"/>
  </g>
</svg>
