<svg xmlns="http://www.w3.org/2000/svg" width="29.339" height="29.449" viewBox="0 0 29.339 29.449">
  <g id="Group_194" data-name="Group 194" transform="translate(-55.668 -358.105)">
    <path id="Path_436" data-name="Path 436" d="M64.248,358.31a10.7,10.7,0,0,0-3.553.681,7.458,7.458,0,0,0-4.257,4.258,10.706,10.706,0,0,0-.68,3.549c-.072,1.582-.09,2.106-.09,6.09s.017,4.51.089,6.087a10.713,10.713,0,0,0,.681,3.553,7.459,7.459,0,0,0,4.258,4.257,10.7,10.7,0,0,0,3.549.68c1.583.072,2.107.089,6.09.089s4.516-.017,6.087-.089a10.7,10.7,0,0,0,3.553-.68,7.462,7.462,0,0,0,4.262-4.261,10.707,10.707,0,0,0,.68-3.549c.072-1.582.089-2.106.089-6.09s-.017-4.51-.089-6.087a10.713,10.713,0,0,0-.681-3.553,7.46,7.46,0,0,0-4.258-4.257,10.714,10.714,0,0,0-3.549-.68c-1.582-.072-2.107-.089-6.09-.089v-.112h0l-.005,0h0v.112C66.349,358.22,65.825,358.238,64.248,358.31Zm6.09,2.455v-.112c3.944,0,4.413.015,5.978.086a8.276,8.276,0,0,1,2.775.514,5.018,5.018,0,0,1,2.872,2.871,8.268,8.268,0,0,1,.515,2.78c.071,1.56.086,2.029.086,5.974s-.015,4.414-.086,5.978a8.264,8.264,0,0,1-.514,2.776,5.017,5.017,0,0,1-2.871,2.876,8.271,8.271,0,0,1-2.781.515c-1.56.071-2.029.086-5.974.086s-4.414-.015-5.978-.086a8.264,8.264,0,0,1-2.776-.515,5.016,5.016,0,0,1-2.873-2.87,8.276,8.276,0,0,1-.515-2.78c-.071-1.561-.086-2.029-.086-5.974s.015-4.413.086-5.977a8.264,8.264,0,0,1,.514-2.776,5.016,5.016,0,0,1,2.87-2.872,8.275,8.275,0,0,1,2.781-.515c1.56-.071,2.029-.086,5.974-.086v.112h0Z" transform="translate(0 0)" fill="#080909"/>
    <path id="Path_437" data-name="Path 437" d="M87.136,397.407a7.478,7.478,0,1,0-7.478-7.478A7.486,7.486,0,0,0,87.136,397.407Zm0-12.517a5.039,5.039,0,1,1-5.039,5.04A5.045,5.045,0,0,1,87.136,384.89Z" transform="translate(-16.797 -17.047)" fill="#080909"/>
    <path id="Path_438" data-name="Path 438" d="M127.035,378.859a1.661,1.661,0,1,0-1.662-1.662A1.664,1.664,0,0,0,127.035,378.859Z" transform="translate(-48.806 -12.205)" fill="#080909"/>
  </g>
</svg>
