<svg xmlns="http://www.w3.org/2000/svg" width="42.466" height="45.813" viewBox="0 0 42.466 45.813">
  <g id="Group_185" data-name="Group 185" transform="translate(-481.491 -74.127)">
    <g id="Group_184" data-name="Group 184" transform="translate(481.491 74.127)">
      <path id="Path_417" data-name="Path 417" d="M491.657,85.709v3.861h10.359v4.568H491.657v25.8h-5.662v-25.8h-4.5V89.569h4.5V85.838c0-7.013,4.5-11.711,11.324-11.711a15.167,15.167,0,0,1,6.821,1.608l-1.995,4.5a7.741,7.741,0,0,0-4.311-1.352C493.845,78.888,491.657,81.591,491.657,85.709Z" transform="translate(-481.491 -74.127)" fill="#1a1818"/>
      <path id="Path_418" data-name="Path 418" d="M532.242,85.709v3.861H542.6v4.568H532.242v25.8H526.58v-25.8h-4.5V89.569h4.5V85.838c0-7.013,4.5-11.711,11.324-11.711a15.166,15.166,0,0,1,6.821,1.608l-1.995,4.5a7.741,7.741,0,0,0-4.311-1.352C534.43,78.888,532.242,81.591,532.242,85.709Z" transform="translate(-502.259 -74.127)" fill="#1a1818"/>
    </g>
    <rect id="Rectangle_16" data-name="Rectangle 16" width="40.343" height="4.568" transform="translate(481.491 89.569)" fill="#6468e6"/>
  </g>
</svg>
