<svg xmlns="http://www.w3.org/2000/svg" width="309.857" height="48.089" viewBox="0 0 309.857 48.089">
  <g id="EIvv7g" transform="translate(-58.807 -34.841)">
    <g id="Group_1" data-name="Group 1" transform="translate(58.807 34.841)">
      <path id="Path_1" data-name="Path 1" d="M64.867,54.31l-.193.022a3.6,3.6,0,0,1-.66,1.033l-.475.042c-.291-.144-.278-.452-.385-.692a.95.95,0,0,1-.019-.764l-.361-.232a7.7,7.7,0,0,0-1.346-1.948c.015-.086.026-.185.053-.281a2.457,2.457,0,0,1,.093-.24c-.037-.274-.232-.412-.418-.59-.1,0-.218,0-.332-.017-.352-.039-.657-.139-.768-.536-.069-.246-.167-.482-.266-.762a1.5,1.5,0,0,1-.98-.479l.059-.6a7.491,7.491,0,0,1,1.547-1.193h.507l-.162.089.755.5c.191.32-.165.54-.07.836a.867.867,0,0,1,.618-.49v.235c.025.006.055.022.069.013.119-.077.234-.158.351-.238a.868.868,0,0,1,.224-.151,1.077,1.077,0,0,0,.56-.438l.554-.219.712.459a1.712,1.712,0,0,0,.689-.352.916.916,0,0,1,.664-.166,1.962,1.962,0,0,0,.971-.221,1.532,1.532,0,0,1,.391-.106l.436.159.011.183.4.247.088.3a6.577,6.577,0,0,0,.774-.771l.106.162.178-.031a.864.864,0,0,0,.588.527l.315-.091a6.558,6.558,0,0,1,.534-.536c.177-.141.4-.069.611-.065l-.061.1.458.071.264.825c.131.141.153.49.495.537a.688.688,0,0,1-.126.668,4.335,4.335,0,0,0-.323.552,2.148,2.148,0,0,0-.087.2l-.247.114v.424a3.363,3.363,0,0,0,.344.311,3.472,3.472,0,0,0,.36.27c.107.051.173.187.277.31l.038.334a1.153,1.153,0,0,0,.318.11c.51.024.75.342.917.8l-.438.619a.467.467,0,0,0,.407.492l-.209.053.263.419.209-.03.211.563c-.058.075-.176.16-.173.239.006.154-.121.187-.178.28s-.125.2-.184.3c-.147.249-.149.272-.021.575a1.93,1.93,0,0,1,.857.564l-.072.7c.147.061.272.12.4.165a1.417,1.417,0,0,1,.592.359.575.575,0,0,1,.112.712,3.029,3.029,0,0,1-.752,1.05v.54c.155.214.323.074.52.057l.9.662a.609.609,0,0,1-.091.571c-.126.179-.251.361-.364.548-.087.143-.153.3-.214.416a.587.587,0,0,0,.241.473,1.888,1.888,0,0,1,.56.647l.28.063-.127.152-.343-.245-.262.728.5.319.1-.2.355.768-.146.668a2.5,2.5,0,0,0-.2.191,6.745,6.745,0,0,1-.495.6,2.208,2.208,0,0,0-.342.616l.115.135c.106.025.183-.119.21-.35a1.766,1.766,0,0,1,1.642.2l.53-.8-.149-.3a3.076,3.076,0,0,0,.193-.622,1.3,1.3,0,0,0-.154-.655c.2-.391.426-.77.594-1.175a7.954,7.954,0,0,1,.965-1.54q.632-.881,1.255-1.771a1.067,1.067,0,0,1,.224-.182l-.112-.248h-.665a1.626,1.626,0,0,1-.575-1.019,2.3,2.3,0,0,1,.36-.72,5.894,5.894,0,0,0,.562-1.05,1.221,1.221,0,0,0-.368-.648.864.864,0,0,1-.255-.5c.065-.113.136-.251.222-.379q.312-.468.636-.928a1.282,1.282,0,0,0,.28-.53.342.342,0,0,1,.251-.295c.142-.041.17-.216.16-.368A5.459,5.459,0,0,1,82,52.267c0-.026.075-.043.144-.08-.184-.267-.378-.508-.526-.776a8.858,8.858,0,0,1-.237-.891l-.343-.066-.371-.4-.428.061-.575.364c-.443-.128-.394-.614-.724-.791.021-.152.042-.3.058-.441.022-.206.186-.336.3-.472.158-.187.291-.387.43-.586A2.072,2.072,0,0,1,79.894,48c.083.011.191,0,.253.042a.6.6,0,0,0,.591.061,2.342,2.342,0,0,1,.319-.058c-.065-.191.064-.3.186-.382.266-.174.442-.5.854-.512l-.174.1.551.207-.065-.136a2.289,2.289,0,0,0,.907-.291.8.8,0,0,1,.78-.018,1.186,1.186,0,0,0,.9.081,2.694,2.694,0,0,1,.648-.009l-.053.111.383-.04.085.138a1.973,1.973,0,0,0,.336-.023c.107-.024.2-.1.311-.113s.231.041.344.031a1.625,1.625,0,0,0,.334-.1c.107-.033.214-.069.4-.127l.311-.271a2.122,2.122,0,0,1,.97.093,2.536,2.536,0,0,0,.455.081L89.2,46.9a1.491,1.491,0,0,1-.024,1.136c.123.145.275.1.412.107.436.013.555.07.891.481l-.122.94.056.029.215-.282.466-.546.483-.658.137.086.291-.412.8.145.307.531q-.444.8-.89,1.593c-.007.014-.047.009-.053.009a2.555,2.555,0,0,1-.091.447.508.508,0,0,0,.166.652c.391.33.42.559.183,1.026-.071.139-.136.281-.214.416a.819.819,0,0,0-.121.624c.041.175.022.363.062.538a2.019,2.019,0,0,0,.94,1.183l-.325.706-.085-.042c-.023.331-.272.537-.435.792a.467.467,0,0,0,.007.638l.681-.033.551.458a5.652,5.652,0,0,1-.149,1.1,2.024,2.024,0,0,0-.432.851.346.346,0,0,0,.09.037.329.329,0,0,0,.095-.023l.067-.306.054,0,.048.295c.007.006.023.03.043.035a1.593,1.593,0,0,1,.923.65.927.927,0,0,0,.355.285,1.561,1.561,0,0,1,.57.481,4.485,4.485,0,0,1-.072.454,4.567,4.567,0,0,1-.45,1.235.607.607,0,0,0-.086.529.96.96,0,0,0,.431.366,2.777,2.777,0,0,1,.492.37.43.43,0,0,1,.1.5c-.095.24-.177.486-.275.759l.221.258a2.511,2.511,0,0,0,.322-.187c.354-.281.658-.267,1.095.046.115.083.221.182.264.218a.848.848,0,0,1-.066.691c-.226.465-.434.94-.665,1.445a1.682,1.682,0,0,0,.2.345.582.582,0,0,1,.1.714c-.13.281-.256.564-.366.809a.518.518,0,0,0,.431.454,1.9,1.9,0,0,1,.431.2c.11.335-.043.619-.023.922.141.038.1-.318.313-.139-.131.23-.409.418-.265.766a1.3,1.3,0,0,0,.835-.087l.3-.548-.047-.224.184-.09c.053-.162.167-.329.073-.553l-.265-.07-.57-.713a10.4,10.4,0,0,1,.56-1.675.846.846,0,0,0-.055-.884c-.152-.238-.285-.488-.4-.692a5.955,5.955,0,0,1,.751-1.723,2.565,2.565,0,0,1,.233-.358.926.926,0,0,0,.227-.957.609.609,0,0,1,.007-.372c.163-.4.35-.78.535-1.165a3.353,3.353,0,0,1,.24-.355l.054-.747c.168-.337.347-.7.527-1.053a1.532,1.532,0,0,1,.291-.369,6.048,6.048,0,0,0,.772-1.2,2.85,2.85,0,0,1,.316-.434,7.853,7.853,0,0,0,.594-.855.67.67,0,0,0,.043-.207l-.735-.436-.242-.625-.122.231-.054-.039L101.5,55l.2-.013.087-.449c.249-.115.319-.415.5-.652-.113-.107-.221-.2-.313-.3s-.152-.2-.227-.3l-.1.115a2.857,2.857,0,0,0-.144-.473.784.784,0,0,1-.062-.607.845.845,0,0,0-.274-.945.74.74,0,0,1-.21-.642.924.924,0,0,1,.134-.4.838.838,0,0,0,.059-.951,2.29,2.29,0,0,1-.109-.294l.159-.507-.214-.433.166-.275,1.076-.25a1.776,1.776,0,0,1,.5-.431.869.869,0,0,1,1.048-.019,1.013,1.013,0,0,0,.393.125c.243.032.489.047.734.074a.715.715,0,0,1,.223.059c.215.1.426.216.694.353l-.053-.229.418-.075.179.109.138-.274.673-.151.657.17a.533.533,0,0,0,.344.391l.066.435c.149-.474.147-.48-.155-.745h.753c-.026.064-.163.128-.016.243l.271-.251-.053-.106.351.039.043-.106h.186c0,.015.007.026,0,.033a.614.614,0,0,1-.049.067,1.153,1.153,0,0,1,.907.692,1.209,1.209,0,0,1-.231.932c-.307.447-.623.888-.936,1.331a3.943,3.943,0,0,1-.715.791c-.288.238-.511.552-.779.816a2.96,2.96,0,0,1-.516.406,1.791,1.791,0,0,0-.842,1.164,1.619,1.619,0,0,1-.255.647,1.635,1.635,0,0,0-.157.382.423.423,0,0,0-.275.356c-.037.23-.088.456-.138.712l.1.063a8.767,8.767,0,0,1-.664,1.747,1.271,1.271,0,0,0-.577.648,5.19,5.19,0,0,1-.576.718l.075.222.308-.247c.136.21.033.486.265.617-.016.037-.019.066-.035.081A1.68,1.68,0,0,0,104,60.928a.968.968,0,0,1-.12.515l-.057-.038c-.312.412-.626.824-.936,1.239a.414.414,0,0,0-.109.419l.257-.215.267.178-.085.136.8.134a1.351,1.351,0,0,1-.114,1.323c-.356.508-.667,1.049-.993,1.579a1.712,1.712,0,0,0-.111.262.465.465,0,0,0,.344.451.543.543,0,0,1,.361.449c-.057.112-.135.272-.219.427a2.6,2.6,0,0,0-.166.264,10.731,10.731,0,0,1-.835,1.488c-.213.354-.463.687-.679,1.039a1.532,1.532,0,0,0-.2.486c-.042.21.126.34.282.427a.53.53,0,0,1,.29.388.671.671,0,0,1-.007.337,5.682,5.682,0,0,1-.329.7c-.548.987-1.122,1.961-1.578,3-.074.169-.215.3-.231.505a1.177,1.177,0,0,0,.169.707.917.917,0,0,1,.059.856c-.069.182-.1.375-.166.558a3.106,3.106,0,0,1-.182.353l.13.4c-.193.041-.193.041-.378-.13l-.183.78-.23.173c-.272.041-.505.066-.731.114s-.4-.086-.6-.152a1.514,1.514,0,0,1-1.075-.026l-.231-.719-.627-.326.135.3-.553.775-1.135.178-.624-.387.157-.035.037-.495-.105-.125.254-.057a.848.848,0,0,1-.1-.224.72.72,0,0,1,.047-.229.82.82,0,0,0-.423.423,2.328,2.328,0,0,1-.307.4.281.281,0,0,0-.073.348,1.225,1.225,0,0,1-.889.184.331.331,0,0,1-.2-.1c-.223-.234-.436-.48-.646-.713-.061-.441.288-.75.336-1.2l-.2.125c-.165-.078-.2-.227-.174-.432a1.126,1.126,0,0,1-.836.12c-.139-.258-.392-.45-.438-.758a1.452,1.452,0,0,1-.016-.538,3.919,3.919,0,0,1,.507-1.289,2.429,2.429,0,0,0,.334-.776c-.1-.063-.187-.129-.285-.184a.718.718,0,0,1-.354-.393,3.313,3.313,0,0,0-.281-.483l-.041-.274-.81-.206.023-.135c-.207-.12-.217-.354-.278-.567s-.155-.42.033-.6c-.147-.428-.547-.737-.455-1.227l-.111-.017c.019-.087.039-.174.056-.26.042-.215.073-.434.13-.646.072-.272.166-.538.263-.851a3.537,3.537,0,0,1-.559-.115,2.747,2.747,0,0,1-.438-.272l-.048-.337-.1.067c-.155-.531.123-1.029.087-1.555-.19-.1-.256.119-.419.169a.793.793,0,0,0-.2-.042,1.12,1.12,0,0,0-.235.048,5.371,5.371,0,0,1-.34-.522,6,6,0,0,1-.225-.588l.154-.828a1.727,1.727,0,0,0,.337-1.2l-.471-.113-.5-.875.071-.446-.17-.1.125-.23a1.058,1.058,0,0,1-.467-.777l-.082.263a.957.957,0,0,1,0-.722c.191-.547.418-1.082.647-1.661-.039-.161-.2-.234-.418-.3a1.6,1.6,0,0,0-1.036.983,6.208,6.208,0,0,1-.7,1.265,1.536,1.536,0,0,0-.15.345,2.067,2.067,0,0,0-.729,1.051c.1.3.424.231.6.425a1.234,1.234,0,0,1-.075,1.045,5.829,5.829,0,0,1-.464.839,2.244,2.244,0,0,0-.251.512c-.075.189-.131.385-.192.569l-.327.135c.041.351.024.691.369.935.129.091.169.308.253.473-.087.2-.169.392-.249.582-.306.718-.72,1.378-1.093,2.059-.235.428-.239.552.07.941-.013.177-.025.354-.045.618-.239.432-.527.939-.8,1.454-.223.416-.433.84-.641,1.265a.6.6,0,0,0-.051.263c0,.106-.064.15-.171.162l.159.359-.186-.07c0,.213.218.157.272.274l.189.459-.221.555c-.07.176-.2.339-.1.555l1.149.259c.059.183.123.364.176.55s.087.35.131.53a6.262,6.262,0,0,0-.715,2.054,1,1,0,0,1-1.057.055,2.015,2.015,0,0,1-.378-1.121l-.991,1a3.378,3.378,0,0,1-1.36.04l-.338-.986.167-.031-.039-.2c-.046,0-.085-.009-.09,0a2.225,2.225,0,0,1-.633.716.726.726,0,0,0-.161.214c-.062.1-.117.2-.181.308l-1.41-.073.061-.12-.388-.07-.079-.147-.633-.123c-.241-.25-.534-.427-.564-.806-.727.142-1.1-.266-1.4-.849v-.459l.106.059a2.16,2.16,0,0,0,.411-1.172l-.339-.364c-.1-.247.071-.539-.17-.767-.069.041-.135.074-.193.118s-.109.121-.175.154c-.486.24-.686.281-.96-.151-.123-.194-.238-.394-.316-.527-.011-.471.348-.759.277-1.172-.176-.343-.543-.59-.587-1.095.081-.2.184-.462.3-.721a1.535,1.535,0,0,0,.171-.882l.106.308.03-.406a1.291,1.291,0,0,1-.464-.825l.276-.623-.079-.1-1.005-.1c.056-.194-.151-.208-.183-.336a2.555,2.555,0,0,0-.161-.366,1.144,1.144,0,0,1,.226-.662,1.819,1.819,0,0,0,.191-.6l.287-.127-.05-.457a1.028,1.028,0,0,0-.554-.194c-.443-.234-.415-.659-.571-.988A4.391,4.391,0,0,0,67.9,64.9c.009-.05-.047-.111-.083-.186-.085.018-.157.04-.231.05a.67.67,0,0,1-.815-.47.937.937,0,0,1-.166-.6,2.313,2.313,0,0,0,.6-1.139c-.1-.073-.173-.129-.249-.177a1.174,1.174,0,0,1-.443-.574.877.877,0,0,0-.652-.568c-.113-.243-.415-.383-.426-.75l.335-.763c-.168-.173-.31-.335-.47-.478s-.327-.254-.481-.371V58.3c.064-.175.38-.337.206-.68a1.054,1.054,0,0,1-1,.009l-.061.151-.318-.664.062-.474c.312-.2.4-.582.6-.887.017-.025,0-.075,0-.114l.008-.006a1.142,1.142,0,0,1,.59-.111l-.019-.286c.048-.105.088-.214.144-.312s.138-.2.208-.3l.053.031-.106.3c.141-.135.342-.216.355-.434l-.168-.1c-.035-.294,0-.443.129-.538h.173v-.4l-.666.671Zm.694-3.6.211.117a.414.414,0,0,1,.073-.1,1.77,1.77,0,0,0,.625-.622c.041-.078.16-.12.25-.165s.191-.075.3-.115l.145-.641c.147-.158.3-.313.44-.475a.4.4,0,0,0,.051-.554c-.2.015-.179.232-.3.335h-.177l-.348.289-.033.246-.609.694.23.043a.563.563,0,0,1-.272.46l.035-.329c-.28.174-.411.5-.756.513l.1.206-.152.078.069.24Zm.153.39-.407-.053a.408.408,0,0,0-.2.408c.04.155-.079.364.162.492l.079-.339Z" transform="translate(-58.807 -33.154)" fill="#6468e6"/>
      <path id="Path_2" data-name="Path 2" d="M259.278,66.389a1.035,1.035,0,0,1-1.132-.415.684.684,0,0,1,.072-.556c.138-.235.264-.479.419-.7.363-.519.7-1.055,1.02-1.6a.424.424,0,0,0-.039-.577l.112-.106-1.02-.364-.117.235-.239-.491c-.006-.464.418-.8.522-1.261a.463.463,0,0,0-.3-.387,1,1,0,0,1-.547-.623c.119-.286.25-.594.376-.9.067-.167.12-.34.189-.506a1.869,1.869,0,0,1,.161-.307c.192-.292.391-.58.6-.888l.031-.508h.051l.039.251.431-.847.372-.318-.039-.03.26-.563a.584.584,0,0,0-.183.045,1.482,1.482,0,0,0-.187.182c-.11.053-.186.17-.35.112-.072-.026-.184.058-.321.109l-.556-.239-.085.041-.216-.2c0-.09.04-.209.009-.23-.179-.119-.105-.42-.374-.48a1.965,1.965,0,0,1-.441-.215c-.138-.07-.293-.122-.346-.329a1.222,1.222,0,0,1,.3-.626c.312-.491.648-.968.991-1.438a2.1,2.1,0,0,0,.372-.649l-.2-.462-.478-.265c.214-.425.43-.831.619-1.249a2.163,2.163,0,0,0,.089-.5l.137-.066-.361-.263.033-.038-.4-.121c-.155-.331.147-.542.184-.817a.518.518,0,0,0-.345-.428.555.555,0,0,1,.109-.547,2.832,2.832,0,0,0,.45-.751,5.234,5.234,0,0,1,.671-1.009,6.3,6.3,0,0,1,.4-.5l-.13-.491.09-.265-.372-.2.146-.438c-.019-.078-.047-.165-.063-.253a.66.66,0,0,0-.495-.545.392.392,0,0,1-.288-.283c-.093-.368-.394-.479-.7-.567-.138-.04-.282-.042-.372-.179-.163-.4.266-.583.34-.9-.03-.281-.208-.366-.464-.343a.666.666,0,0,1-.586-.242l-.145-1.043a6.305,6.305,0,0,1,1.066-1.128,5.39,5.39,0,0,0,.6-.608.823.823,0,0,1,.754-.39,1.255,1.255,0,0,0,.832-.376,2.358,2.358,0,0,0,.648-.6c.163-.258.456-.207.714-.162a2.749,2.749,0,0,1,.391.127c.13-.05.274-.109.419-.16a.9.9,0,0,1,.888.075,4.415,4.415,0,0,0,.41.235,2.689,2.689,0,0,0,.368-.135,1.276,1.276,0,0,1,.8-.072.745.745,0,0,1,.38.243c.114.119.226.226.4.2.408-.054.592.185.711.52.022.061.04.123.063.193l-.095.488.141.074.162-.09a5.122,5.122,0,0,1,.286.507,1.382,1.382,0,0,1,.093.409c.048.424.094.849.123,1.274a.758.758,0,0,1-.094.424l-.29.307.162.086c.035.451-.079.936.233,1.36.265.159.582.291.609.706a2.3,2.3,0,0,1-.458.945.8.8,0,0,0-.039,1.067.6.6,0,0,1,.029.695c-.079.135-.139.279-.213.425l.122.3a.691.691,0,0,1,.567.7,5.11,5.11,0,0,1-.643,1.521,3.26,3.26,0,0,1-.3.4c-.106.144-.207.291-.291.412.1.4.169.486.5.472a.672.672,0,0,1,.759.538v.538c.183.249.442.15.656.21-.324,0-.684.138-.9-.267-.228.283.049.622-.188.869l.073.048-.638.545v.432c.167.336.6.142.9.524a.819.819,0,0,1-.013.786,3.083,3.083,0,0,0-.126.386c.209.388.31.438.687.363a2.709,2.709,0,0,1,.291-.019l-.243.221a1.8,1.8,0,0,0-.409,2.071c.075.163.144.331.21.486-.082.055-.167.081-.2.138-.159.237-.3.483-.452.724-.048.077-.1.154-.151.225-.25.329-.5.656-.742.967l.026.4a2.048,2.048,0,0,0,.273.045c.247.006.495-.009.742.006a.731.731,0,0,0,.666-.33,7.219,7.219,0,0,1,1.275-1.357.7.7,0,0,1,.455-.192.653.653,0,0,0,.67-.483.891.891,0,0,1,.13-.194l.133.077c.021-.016.05-.027.058-.048.07-.182.128-.369.327-.458.386-.572.985-.955,1.354-1.553a4.5,4.5,0,0,1,.736-.748c.167-.162.338-.319.5-.48.1-.1.2-.2.312-.306l.045-.294a2.16,2.16,0,0,0,.849-1.255,2.413,2.413,0,0,0-.231-1.56l.34-.37c.121-.25-.029-.419-.181-.578.137-.387.268-.49.648-.494.442,0,.884,0,1.327,0a3.669,3.669,0,0,0,.772-.065c.3-.066.623-.032.922-.1a5.665,5.665,0,0,1,1.317-.065,8.76,8.76,0,0,1,1.2.088,1.254,1.254,0,0,1,.555.253,1.026,1.026,0,0,0,1.049.207,2.553,2.553,0,0,1,.572-.082.608.608,0,0,1,.468.155l.265.719-.768.39-.166.3a.755.755,0,0,1-.534-.176,2.6,2.6,0,0,1-.384.3c-.305.162-.63.289-.937.447-.251.129-.495.275-.734.425-.473.295-.941.6-1.412.9-.285.181-.575.352-.852.542-.448.307-.885.63-1.332.938a1.139,1.139,0,0,1-.631.278.629.629,0,0,0-.313.141,2.087,2.087,0,0,0-.282.269c-.08.081-.246-.026-.29.141-.008.033-.082.064-.13.07a1.265,1.265,0,0,0-1.02.967l-.08-.05a2.523,2.523,0,0,0-.825.79,1.809,1.809,0,0,0-.157.529l-.228.247.127.189-.127.224a.532.532,0,0,0,0,.086c.046.254.1.505.138.76a.6.6,0,0,0,.362.512.674.674,0,0,1,.4.419,2.424,2.424,0,0,1-.54,1.082c-.107.159-.207.323-.3.465.173.387.238.424.657.376l-.064.1.169.235-.075.546a6.978,6.978,0,0,0-.74,1.135l.075.16c.03,0,.063.016.074.006.278-.269.553-.54.828-.811a2,2,0,0,1,.615-.516,4.749,4.749,0,0,1,.711.109.711.711,0,0,1,.358.282c.174.27.307.566.469.869-.091.171-.184.324-.256.486a2.128,2.128,0,0,0-.16.472.383.383,0,0,0,.288.41,2.78,2.78,0,0,0,.368.043c.158-.1.323-.224.5-.32a.606.606,0,0,1,.331-.085,3.543,3.543,0,0,1,.714.166.468.468,0,0,1,.253.585,5.322,5.322,0,0,1-.257.606c-.135.28-.282.554-.407.8a.63.63,0,0,0,.285.446,2.5,2.5,0,0,1,.347.385l-.09.384c.135.423.586.481.831.743a1.506,1.506,0,0,0,.452-.008.881.881,0,0,1,.569.019.779.779,0,0,1,.643.561,3.339,3.339,0,0,1-.726,1.3c-.131.19-.251.387-.338.522.061.369.1.663.158.953a.5.5,0,0,0,.257.374,3.154,3.154,0,0,1,.71.5.95.95,0,0,0,.6.256,1.1,1.1,0,0,1,.96.483.854.854,0,0,1-.162.73l-.277.482a.585.585,0,0,0,.28.435.518.518,0,0,1,.257.528,2.519,2.519,0,0,0,.027.392,1.8,1.8,0,0,1,.961.921c.345-.091.284-.408.434-.616a8.393,8.393,0,0,1,.895.85c.29.279.567.572.874.885l-.259.125a1.533,1.533,0,0,0-1.01-.366c-.368.094-.447.462-.617.769,0,0-.007,0-.014,0s-.042-.029-.063-.042c-.073.393-.462.577-.61.928l.321.224a2.71,2.71,0,0,1,1.023-.427,1.126,1.126,0,0,1,1.534-.266.539.539,0,0,1,.251.538,1,1,0,0,0,.379.852c.154.139.293.295.394.4.338.161.508-.1.723-.161a.869.869,0,0,1,.787.844,1.889,1.889,0,0,0,.2.463l-.24-.192a.125.125,0,0,0-.043.032,3.678,3.678,0,0,1-.264.379.529.529,0,0,1-.66.181,1.051,1.051,0,0,0-.293-.04l-.688-.66-.155.19h-.528l-.1-.17a2.088,2.088,0,0,0-.794.625c-.5.046-.5.046-1.048-.372-.072-.269-.289-.5-.26-.833l-.2.048.033.21-1.075.508c-.615.051-.916-.384-1.183-.857-.067-.121-.072-.281-.227-.343-.612.2-.756.418-1.284,1.143.19.169.432.015.66.117-.094,0-.155.014-.216.01a1.615,1.615,0,0,0-1.005.222.56.56,0,0,1-.56.029,4.317,4.317,0,0,0-.515-.17,1.128,1.128,0,0,0-.706.513c-.123.146-.249.291-.371.433l-.5-.109c-.128-.335-.562-.463-.58-.876a1.566,1.566,0,0,0-.851.255l.042.09a.832.832,0,0,0-.659.282c-.189.185-.367.43-.764.27a1.967,1.967,0,0,1-.554-.515c-.19-.336-.191-.431.105-.763.063-.01.139-.018.215-.034s.12-.034.2-.058L273.371,81a.242.242,0,0,1,.041-.058c.21-.151.425-.3.631-.452.185-.141.353-.307.544-.439a.946.946,0,0,0,.386-.544c-.094-.171-.089-.409-.291-.544a.049.049,0,0,1-.016-.035c-.034-.474-.454-.665-.714-.973l-.022-.03-.145-.654-.5-.505-.12-.434c-.281-.249-.634-.427-.725-.831.095-.465.513-.743.671-1.144a.428.428,0,0,0-.379-.4,1.7,1.7,0,0,1-.895.208l-.732-.514V73.3a1.866,1.866,0,0,0,.674-1.414,5.774,5.774,0,0,1-.881-.105,4.4,4.4,0,0,1-.815-.358,2.086,2.086,0,0,1-.692-.538.676.676,0,0,1,.047-.5c.159-.36.125-.516-.163-.748a.733.733,0,0,1-.313-.512.625.625,0,0,0-.09-.208l-.835-.681.089-.644c-.045-.057-.056-.089-.077-.1a5.18,5.18,0,0,1-1.1-.465c-.069-.042-.176-.019-.277-.027l-.287.266v.426c.121.04.239.081.359.117.1.029.2.04.3.078a.456.456,0,0,1,.3.618,6.623,6.623,0,0,1-.874,1.644.7.7,0,0,0-.131.689c.088.051.2.112.307.184a.513.513,0,0,1,.209.672,1.052,1.052,0,0,1-.123.239,6.3,6.3,0,0,1-.884,1.129.584.584,0,0,0-.233.624.343.343,0,0,0,.3.141,1.356,1.356,0,0,1,.376.081.56.56,0,0,1,.332.755.721.721,0,0,0,0,.684l.5.185a.605.605,0,0,1,.127.7,5.628,5.628,0,0,1-.489.97c-.111.2-.109.225.095.457.129-.056.27-.114.407-.178a.949.949,0,0,1,1.275.28,1.368,1.368,0,0,1-.081.762,2.46,2.46,0,0,0-.13.916,4.729,4.729,0,0,0,.091.465c.166.085.291.151.418.215a.576.576,0,0,1,.347.521c.006.113-.032.245.1.338l-.227-.095-.593.641.056.1c-.01.014-.019.038-.037.046a1.669,1.669,0,0,1-.239.1c-.2.054-.393.186-.6.008a1.077,1.077,0,0,0-.219-.112h-1.287v-.046h1.188l-.243-.336v-.523l-.209.288h-.57l0-.025.49-.031c.186-.16.134-.366.162-.554a4.142,4.142,0,0,1,.147-.532.393.393,0,0,0-.34-.39c-.418.133-.607.551-.913.831l-.031.214c-.3.253-.571.467-.825.7a1.278,1.278,0,0,0-.182.294l.133.127-.859-.167c-.294-.24-.617-.482-.623-.928l-.444-.152c-.242.113-.339.122-.9.073l-.708-.538-.41.121-.191.311-.178.024a1.965,1.965,0,0,1-.679,1.059l.063.2-.378-.059.073.143-1.025.13a1.467,1.467,0,0,1-.1.121.5.5,0,0,1-.809,0c-.088-.085-.19-.154-.3-.247l-.119-.251c.023-.157.216-.314.086-.528a.246.246,0,0,0-.346-.031c-.21.145-.419.295-.615.459-.055.047-.063.151-.1.242l-.22-.048-.08.13h-.3l-.7-1.012c.45-.336.89-.651,1.315-.986s.82-.674,1.252-1.032c.232-.66.694-1.248.939-1.923l-.408-.465-.3-.056-.12-.287a3.936,3.936,0,0,1,.455-.979l.163.008a.258.258,0,0,0,.017-.07.731.731,0,0,1,.133-.508,12.572,12.572,0,0,0,.906-1.668c.082-.146.163-.294.274-.492l.051-.484-.344-.47-.111.194v-.293l.105-.048a1.237,1.237,0,0,1,.468-1.346c0,.011,0,0,0-.015s-.007-.05-.014-.1c.129-.141.274-.288.408-.446a.279.279,0,0,0,.045-.168c0-.114-.018-.23-.029-.347-.382-.278-.923-.322-1.136-.82l.085.049a.894.894,0,0,1,.5-.876l-.026-.213.162-.295-.035-.037-.223.2-.337-.37.249-.015a2.547,2.547,0,0,1,.265-.532,4.447,4.447,0,0,0,.369-.684.308.308,0,0,0-.17.1,3.639,3.639,0,0,0-.532.849A1.761,1.761,0,0,1,259.278,66.389Zm3.984-5.156a.831.831,0,0,0,.311-.465c.038-.007.091,0,.111-.023a1.9,1.9,0,0,0,.511-.8c.167-.043.329-.1.306-.312l-.03-.4-.352.209-.339.576.1.162h-.238l-.145.27-.387.538c-.243.213-.359.532-.6.74a.816.816,0,0,0-.256.5c0,.014.023.033.034.047l.212-.269.088.3.189-.187c.015-.189.082-.345-.009-.5l.207-.251Zm-3.351.859c.018.007.049.023.054.018.12-.149.238-.3.359-.454a.324.324,0,0,1,.082.37c-.045.11.022.181.079.255l.5-.415.05-.344.223-.245-.326-.032-.037-.208-.189.077c.006-.046.013-.081.015-.117s0-.074,0-.143A5.13,5.13,0,0,0,259.911,62.091Zm.624,3.294.079.041.151-.258c.123-.211.242-.426.372-.633a4.276,4.276,0,0,0,.264-.375,1.2,1.2,0,0,1,.282-.455.251.251,0,0,0,.025-.369,7.663,7.663,0,0,0-1.349,1.708.407.407,0,0,0,.174-.059l.218-.113Zm1.632-6a.941.941,0,0,0,.165-.162c.306-.475.606-.955.9-1.422l-.193-.307-.194.288.163.081a3.059,3.059,0,0,1-.858,1.155l-.1-.157-.147.424Z" transform="translate(-30.825 -34.841)" fill="#6468e6"/>
      <path id="Path_3" data-name="Path 3" d="M177.615,68.957l.062.091-.2.459c.161.321.6.161.694.505a.747.747,0,0,1-.2.714c-.025.029-.069.051-.075.082-.109.451-.488.728-.7,1.111a.546.546,0,0,1-.111.106v.483l.3.522c-.046.219-.3.414-.183.7a.482.482,0,0,0,.462.147c.448-.039.515,0,.682.456l-.146.191c0,.022.041.086.023.123a2.2,2.2,0,0,1-.508.82.573.573,0,0,0-.206.612c.173.238.424.093.682.183l.292.328a.891.891,0,0,1-.358.917l-.03.282-.139-.087c-.237.149-.121.367-.141.579l.706.255a2.825,2.825,0,0,0,1.434,1.093v.409a13.483,13.483,0,0,0-1.2,1.319l-.419.162a1.043,1.043,0,0,0-.193-.093,1.324,1.324,0,0,0-.234-.021l-.328-.432.07-.292c-.055-.19-.138-.344-.326-.371l-.816.758-.146-.269-.19.321.078.344c-.081.009-.139.019-.2.021a1.242,1.242,0,0,1-.146-.009c0,.083-.048.109-.122.1-.051,0-.1,0-.085,0l-.251-.351-.087.089-.077-.465h-.184l-.063-.608h-.32l-.176.436a6.322,6.322,0,0,1-1.173,1c.295.105.37-.211.58-.114-.323.3-.562.692-1.015.79-.383-.061-.507-.464-.817-.575l-.4.087c-.073.251-.336.235-.567.344a2.592,2.592,0,0,1-.462-.318.879.879,0,0,0-.782-.313c-.074-.308-.314-.426-.58-.537-.128-.053-.217-.2-.358-.335h-.191a.422.422,0,0,1-.045-.454c.071-.179.155-.355.24-.529.1-.213.214-.42.314-.616l.035.079.4-.542c0,.009,0-.04-.009-.111l.189-.177a.725.725,0,0,1-.139-.584c.033-.232,0-.473.042-.71a.755.755,0,0,0-.053-.242l-.841.061a1.31,1.31,0,0,0-.824.79,2.319,2.319,0,0,0-.784.887,1.876,1.876,0,0,1-.263.322A8.056,8.056,0,0,1,166,80.218a.979.979,0,0,0-.179.274l-.486.3-.146-.085-.185.1-.194-.1V80.56l-.318-.289-.063.182a1.293,1.293,0,0,0-1.041.463,1.226,1.226,0,0,0-.379.53.307.307,0,0,1-.091.125c-.225.231-.45.459-.691.7l-.55.091-.59-.428-.563.325-1-.136c-.23-.15-.17-.412-.291-.619l-.3-.189-.808.823.072.163a1.514,1.514,0,0,1-.642.061c-.422-.062-.84-.141-1.242-.209l-.614-.412a.764.764,0,0,0-.394-.662.955.955,0,0,1-.758-.208,1.8,1.8,0,0,0-.408-.2,2.249,2.249,0,0,1-.745-.7c-.024-.031-.033-.078-.062-.1-.49-.352-.651-.957-1.063-1.37-.061-.061-.061-.181-.088-.27a2.054,2.054,0,0,0,.186-.2c.27-.362.534-.73.8-1.093.224-.3.466-.587.673-.9a1.952,1.952,0,0,0,.165-.479l-.139-.169a9.017,9.017,0,0,0-.884.9c-.106.035-.257-.086-.362.115l.026.263-.17.306-.106-.194-.466.059-.295.295.05.425-.216-.08a1.278,1.278,0,0,0-.051.182.517.517,0,0,0,.013.133c-.106.13-.224.151-.314.042-.28-.337-.546-.686-.824-1.037l.394-.363.3.058-.166-.293c.266-.31.655-.234.983-.37l-.316-.061-.085-.46a.562.562,0,0,0,.42-.428,5.878,5.878,0,0,1,.78-1.251c.083-.127.162-.234.065-.388a.239.239,0,0,0-.315.147c-.241.458-.716.729-.951,1.2-.053.1-.206.153-.286.249-.159.194-.3.4-.486.654l-.551.1.032-.337c-.022-.007-.047-.026-.063-.021-.119.047-.234.1-.361.151l.027.3c-.187-.368-.55-.53-.511-.9l.553-1.021a.47.47,0,0,0-.289-.412c-.119-.051-.231-.118-.346-.177a.632.632,0,0,1-.364-.777,1.279,1.279,0,0,0,.5-1l-.466-.676a3.5,3.5,0,0,0,.712-1.235l.363-.281-.1-.177.146-.053.249-.46a.738.738,0,0,0-.234-.638,2.15,2.15,0,0,1-.268-.431,1.245,1.245,0,0,1,.071-.186c.284-.478.566-.956.859-1.427a1.089,1.089,0,0,0,.174-.689l1.05-1.784a.7.7,0,0,0-.456-.346,1.133,1.133,0,0,1-.035-1.044,3.8,3.8,0,0,1,.642-1.016,8.305,8.305,0,0,0,.665-.908.678.678,0,0,0,.091-.734,1.313,1.313,0,0,1-.07-.224,1.353,1.353,0,0,1,.545-.642,6.866,6.866,0,0,0,1.209-1.261,2.255,2.255,0,0,1,1.084-.835,1.6,1.6,0,0,0,1.023-1,1.32,1.32,0,0,1,.312-.484c.261-.255.514-.516.775-.77a10.615,10.615,0,0,0,1.227-1.5,12.381,12.381,0,0,1,1.029-1.407,11.264,11.264,0,0,0,.818-1.107h.125c.363-.258.617-.652,1.068-.785l-.046-.066.522-.178c.119.046.286.109.45.176a.32.32,0,0,0,.354-.067.762.762,0,0,1,.393-.182,1.331,1.331,0,0,1,.44.122c.015.006.021.041.038.078l.648-.184a6.64,6.64,0,0,1,1.095-.949c.6.078,1.085.255,1.159.895a.6.6,0,0,0,.494.135,1.063,1.063,0,0,1,.6.067,3.427,3.427,0,0,0,.888.16,6.834,6.834,0,0,0,.579-.45.521.521,0,0,0,.1-.676,1.169,1.169,0,0,1-.151-.695c.1-.177.192-.347.288-.516a.75.75,0,0,0-.083-.9,2.167,2.167,0,0,1-.3-.614c.08-.184.161-.387.257-.584.073-.149.225-.284.235-.433.013-.207.295-.105.215-.406l-.578-.552c-.026-.107-.051-.207-.073-.307a1.52,1.52,0,0,0-1.016-1.128,1.116,1.116,0,0,1-.665-1.428c.027-.086.055-.171.09-.285a2.686,2.686,0,0,0-.731-1.058,1.411,1.411,0,0,1-.534-.779c.112-.224.239-.464.351-.712a.821.821,0,0,0,.094-.33,1.026,1.026,0,0,1,.579-.954c.484-.215.969-.427,1.462-.644a1.455,1.455,0,0,1,.979.441.441.441,0,0,0,.171.011,1.682,1.682,0,0,1,1.023.1.688.688,0,0,0,.627-.075.575.575,0,0,1,.553-.038c.206.074.42.121.628.179a.593.593,0,0,0,.154-.053,1.079,1.079,0,0,1,1.106-.022c.11.04.215.09.354.149l.586-.315a3.411,3.411,0,0,0,1.37.23.593.593,0,0,1,.119-.067.971.971,0,0,0,.576-.543,2.322,2.322,0,0,1,.231-.345l.939.2a1.294,1.294,0,0,1,.231.93l-.105-.173c-.046.428.227.586.528.763a2.169,2.169,0,0,1-.384.727,4.448,4.448,0,0,0-.655,1.056l.319.6a.705.705,0,0,1-.176.551c-.2.315-.446.606-.651.92-.155.238-.28.495-.4.718a.4.4,0,0,0,.444.382.616.616,0,0,1,.56.291,3.221,3.221,0,0,1-.848,2.018v.338l.353.384a1.328,1.328,0,0,1-.222,1c-.109.176-.194.364-.266.5.017.452.419.335.648.555l.207.447a5.521,5.521,0,0,1-.537,1,.4.4,0,0,0-.1.391c.112.21.335.163.542.2a2.162,2.162,0,0,0-.275,1.558c-.082.107-.182.232-.277.36a.631.631,0,0,0-.129.6l.591.149a.649.649,0,0,1,.181.77,4.348,4.348,0,0,1-.545.961.479.479,0,0,0-.077.424l.335.266c-.058.191.147.481-.219.6.022.273.115.576-.267.726l.3.276-.067.488.066.015.155-.49.447.322a1.89,1.89,0,0,1-.521,1.16v.455l-.11-.177-.287.27.5.109-.053.179.288.594-.224.535-.224.072-.239.435.054.329.585.234.067-.047a.478.478,0,0,1,.153.5,1.839,1.839,0,0,1-.189.423.57.57,0,0,0-.077.5l.423.443v.433l-.351.41A1.432,1.432,0,0,1,177.4,64.2c-.153.126-.246.3-.4.43a.481.481,0,0,0-.138.459l-.355.061c-.061.235-.307.282-.4.4l-.4.745.1.17-.286.227-.353.119-.042.339-.235.152.135.476-.515.528.425.385c.147-.085.127-.154.071-.248a.252.252,0,0,1,.018-.222l.137.187c.313-.138.327-.508.585-.642l.109-.482c-.218-.006-.2.224-.344.287l-.168-.151a4.955,4.955,0,0,0,.792-1.128l.123.137.24-.128-.078-.376.112-.128.238.328.535-.742a2.526,2.526,0,0,1,.948-.03l.074-.232.241.117a1.227,1.227,0,0,1-.459,1.027l.034.062c-.088.262-.4.4-.415.732.042.237.278.152.436.213v.19l.166-.105a.466.466,0,0,1,.121.628,4.454,4.454,0,0,1-.521.768A1.235,1.235,0,0,1,177.615,68.957Zm-6.993,6.234a1.586,1.586,0,0,1-.492.762l-.316.053-.473.658h.3a.434.434,0,0,1,.488-.351l-.023.3.337-.436.155-.6.2.372a.383.383,0,0,0,.088-.449c-.008-.031.043-.077.074-.127l.118.187.24-.168-.247-.225a.544.544,0,0,0,.458-.138.491.491,0,0,0,.171-.391l.331-.457-.11-.207-.079.15h-.231l-.335-.231-.082-.3-.264.736.155.194.344-.128v.447l-.628-.354-.1.253Zm-8.8,1.5c.361-.154.468-.567.806-.836l.2.216a10.782,10.782,0,0,1-1.079,1.034l.956-.262.078-.487.141.177.2-.141-.105-.173a1.983,1.983,0,0,1,.7-.786l.439.072.007-.041-.125-.074a1.8,1.8,0,0,1,.632.149,1.142,1.142,0,0,0,.885.152.778.778,0,0,1,.782.114l.185.382c.287.079.37-.16.536-.25.035.008.074.013.11.024a.676.676,0,0,0,.8-.24c.323-.371.668-.724.994-1.093a5.042,5.042,0,0,0,.37-.506,4.3,4.3,0,0,1,.232-.385,2.359,2.359,0,0,1,.332-.274l-.073-.112a.665.665,0,0,0,.313-.769l-.417-.447c.021-.37.038-.752.063-1.133a1.037,1.037,0,0,0-.151-.632.687.687,0,0,1-.03-.63c.11-.3.2-.6.3-.9l.1-.042-.048-.254.214-.1.187.321c.048-.378.048-.378-.1-.641a.99.99,0,0,0-.4-.976c.107-.411-.29-.678-.356-1.059l.223-.016-.2-.255.2-.034c-.086-.262-.07-.307.159-.492l.138-.748.159-.081-.03-.479a1.067,1.067,0,0,1-.168-.919l.208-.014c-.112-.37.1-.628.283-.9.011-.016.041-.019.066-.032l.142.2a.562.562,0,0,0,.419-.4l-.241.11-.136-.152.03-.652-.38.2a.254.254,0,0,1-.231-.274c0-.013-.034-.024-.058-.039l-.13.145-.484-.206a2.716,2.716,0,0,1,.214-1.2.725.725,0,0,0,.057-.185.955.955,0,0,0-.088-.785,2.9,2.9,0,0,1-.191-.422c.135-.378.254-.713.374-1.047a.658.658,0,0,0,.375-.39c-.137-.107-.185-.329-.433-.327a1.031,1.031,0,0,1-.046-.375,1.712,1.712,0,0,0-.093-.916c-.009-.037-.01-.075-.019-.145l.232-.157a2.031,2.031,0,0,1-.058-.305c0-.09.109-.189-.053-.3.007.242-.154.361-.289.508-.033-.07-.055-.141-.03-.184.109-.181.162-.406.4-.528l-.282-.075-.315.54a1.9,1.9,0,0,0-1.325-.52,1.847,1.847,0,0,1-1.1-.59.453.453,0,0,1-.074-.133c-.16-.318-.251-.634,0-.908a1.565,1.565,0,0,0-.518-.971l-.61.083-.082.262a3.678,3.678,0,0,0-.791.8,1.165,1.165,0,0,1-.4.427l-.457-.025-.147-.377-.291-.1c-.095-.17-.106-.4-.309-.508l-.873.428c-.4.144-.638-.262-1-.324a3.185,3.185,0,0,0-.55.6c-.234.426-.476.849-.715,1.273-.026.045-.048.114-.087.126-.25.077-.263.3-.3.458-.216.259-.422.478-.592.721a.533.533,0,0,0-.091.624.723.723,0,0,1,.659.743l-.47.648c-.165.225-.446.345-.569.616l.091.038a1.872,1.872,0,0,0-.1.353,2.737,2.737,0,0,1-.511,1.367,1.53,1.53,0,0,0-.144.207c-.106.234-.2.473-.292.689a.65.65,0,0,0-.4.319c-.144.194-.3.377-.457.566-.062.135-.2.274-.113.5l.474.149.3.867c-.185.351-.547.624-.612,1.056-.181,0-.238.13-.32.223s-.143.184-.213.278l-.464.623a.22.22,0,0,0,.021.331l.364-.12.368.185.123.4c-.047.3-.37.5-.215.8.112.337.486.206.633.426l.152-.081.224.34a3.691,3.691,0,0,1-.093.6,2.051,2.051,0,0,1-.311.7,7.378,7.378,0,0,1-.42.641c-.1.1-.193.2-.294.3-.082.079-.173.15-.259.224l.086.111c-.019.272-.35.378-.331.716.237-.3.442-.545.634-.8.1-.135.166-.295.263-.432a1.014,1.014,0,0,1,.59-.4l-.027.271.63-.72.181.127.282-.458a1.713,1.713,0,0,1,1.01.141l.216.356c.023.506-.441.834-.516,1.321l.2.4.495.155c.094.275.158.514.256.739a.424.424,0,0,0,.537.251l-.041-.062.072-.034.275.155-.219.128.149.249.174-.261.154.45-.109.372.12.305.45.031.168.247.149-.074c.13.235-.119.308-.207.472l.219.165v.174a.384.384,0,0,0,.494.126c.086-.03.168-.059.225.061l-.277.109.352.177.062-.121.131.062.034.358-.452.842h-.478l.165.331a.942.942,0,0,1-.159.069.8.8,0,0,1-.165-.008l-.071.482-.324.039-.184.356.193.59c.191-.23-.093-.331-.048-.473Zm13.086-7.877c-.128.095-.25.167-.393.09-.085.106-.266-.022-.339.151-.023.057-.145.072-.212.1l-.154-.09-.048.858c.434-.13.507-.688.98-.695C174.791,69.1,174.948,69.021,174.906,68.815Zm2.556,11.1c.2-.041.371-.07.539-.117a.713.713,0,0,0,.182-.107l-.352-.488c-.175.129-.439.166-.459.473ZM156.98,70.228c-.23.158-.285.4-.489.51l-.134-.217a1.585,1.585,0,0,1-.139.216c-.061.066-.143.113-.2.181a.946.946,0,0,0-.091.229l.344-.247.409.065a.549.549,0,0,1,.2-.44l.153.11c.123-.126.28-.235.159-.452Zm-1.1,2.959-.042-.047-.1.057-.071-.138c.041-.139.255-.2.173-.394-.338.206-.275.627-.534.875l.257.139Zm15.78.531a.442.442,0,0,0,.576-.009,1.162,1.162,0,0,0,.023-.187c0-.032-.029-.064-.051-.109l-.562.137Z" transform="translate(-45.991 -34.745)" fill="#6468e6"/>
      <path id="Path_4" data-name="Path 4" d="M253.631,71.366a.627.627,0,0,1-.1.2,5.489,5.489,0,0,1-1.138.964c-.086.383-.414.646-.348,1.058a.457.457,0,0,0-.4.238,14.954,14.954,0,0,0-.807,1.547c-.09.157-.177.315-.264.471h-.279l-.548-.291a.856.856,0,0,0-.521.319,11.088,11.088,0,0,0-1.033,1.362c-.007.01-.01.024-.018.034l-1.008,1.3c-.1.034-.189.07-.276.09a.476.476,0,0,1-.588-.251,2.621,2.621,0,0,1-.183-.3.45.45,0,0,0-.361-.269,1.377,1.377,0,0,0-.582.364c-.182.16-.382.3-.582.451l-.505.594.147.279-.29-.021-.015-.243-.183.054-.464.55-.033-.026-.107.326c-.1.086-.189.154-.273.226-.2.169-.394.336-.587.508a.5.5,0,0,0-.111.154c-.087.182-.19.331-.426.326-.048,0-.1.071-.139.1-.527-.183-.732-.642-1-1.068l-.36-.029-.412.462c-.1.115-.206.234-.312.347a.588.588,0,0,1-.583.194,2.344,2.344,0,0,1-.8-1.024.569.569,0,0,0-.694.165,1.3,1.3,0,0,1-.624.482c-.348-.077-.527-.367-.7-.64l-.384-.2.007-.041.24.035c.2-.133.144-.3.1-.432.069-.214.207-.376.117-.64a1.286,1.286,0,0,1-.063.215,2,2,0,0,1-.145.2l-.379-.091c.142-.191.426-.183.446-.438l-.624.278-.277-.219-.3.034a.537.537,0,0,1-.111-.064,3.271,3.271,0,0,1-.363-.393.608.608,0,0,1-.087-.328.468.468,0,0,0-.26-.479c-.23-.118-.328-.387-.568-.507a.346.346,0,0,1-.109-.27.5.5,0,0,0-.535-.571l.181-.093h-.375l-.55-.707.221-.251c-.138-.248.286-.483.013-.768l-1.013-.1,0-.043.2-.056c-.095-.245-.34-.305-.534-.483l.037-.516.251-.206.032-.385-.235.118-.242-.375.375.071a.494.494,0,0,0-.545-.134c-.245-.239-.635-.356-.726-.788l.119-.077c-.063-.274.144-.434.268-.564a1.568,1.568,0,0,1,.109-.414c.149-.233.165-.556.451-.7-.064-.265.194-.414.237-.644a.91.91,0,0,1,.147-.262c.107.066.177.03.221-.08l.268-.134.353-.706.193.037-.082-.594.391-.438-.253-.151.082-.183a.392.392,0,0,0-.219.151,3.155,3.155,0,0,1-.44.528,2.765,2.765,0,0,0-.522.747c-.018.027,0,.077,0,.115l-.281.347.043.105c-.239.254-.473.508-.715.759-.113.117-.239.221-.35.322-.434-.086-.649-.439-.989-.594l-.115-.328a.757.757,0,0,1,.033-.121q.523-1.087,1.049-2.172a.545.545,0,0,0,.046-.49l-.977-.746a4.013,4.013,0,0,1,.426-1.152c.185-.336.389-.662.579-1,.07-.122.127-.253.191-.383a1.3,1.3,0,0,0-.119-.3.611.611,0,0,1-.049-.662c.037-.082.063-.169.094-.254l.093.064a5,5,0,0,0,.6-1.041,5.768,5.768,0,0,0,.506-.642c.189-.329.5-.559.689-.875a1.006,1.006,0,0,0,.234-.54c0-.166.059-.327-.042-.48-.088-.131-.184-.258-.3-.423a2.007,2.007,0,0,1,.048-.218,5.542,5.542,0,0,1,1.077-1.9,3.013,3.013,0,0,0,.407-.678,9.2,9.2,0,0,1,.744-1.226c.322-.472.674-.917,1.024-1.364.2-.255.432-.481.643-.726.082-.1.142-.211.219-.311.3-.387.63-.758.9-1.162.446-.654.981-1.235,1.453-1.868.207-.278.432-.546.635-.83a.429.429,0,0,0,.086-.127.529.529,0,0,1,.379-.369c.2.025.361.054.527.065a.616.616,0,0,0,.569-.272,2.388,2.388,0,0,1,.271-.269l.505.122c.426-.011.681-.408,1.027-.486a4.654,4.654,0,0,1,2.119.527,2.248,2.248,0,0,0,.913-.586,8.218,8.218,0,0,1,1.087-.943,1.785,1.785,0,0,1,1.341.512,1.425,1.425,0,0,0,.608-.323c.117-.1.24-.2.366-.289a.6.6,0,0,1,.521-.091c.062.016.121.047.184.059.507.105.508.105.663.6-.053.139-.118.294-.17.454a.977.977,0,0,0-.061.3c0,.258.2.444.436.358a1.5,1.5,0,0,1,1.2.139.674.674,0,0,0,.872-.157c.037-.037.078-.069.119-.105.41-.112.7.223,1.061.24a1.462,1.462,0,0,1-.047.949c-.077.243-.073.245.151.505l1.068.113-.04.071c.286.1.275.447.51.63a.825.825,0,0,0-.355.524,5.007,5.007,0,0,1-.275.642c-.057.129-.118.258-.189.41l.235.292.871-.666c.176.065.321.117.465.171.4.154.564.406.431.941a4.543,4.543,0,0,1-.17.475c-.053.145-.107.29-.154.416a.382.382,0,0,0,.354.371,1.006,1.006,0,0,1,.564.327.528.528,0,0,1,.168.523.531.531,0,0,0,.082.506l.309.143c.184-.173.371.015.567.009l-.254.066.406.065.163.3v1.007c-.114.208-.287.526-.46.842l-.074.137c-.2.379-.176.486.186.737.619.43.641.479.4,1.217a3.723,3.723,0,0,1-.54,1.05,8.716,8.716,0,0,0-.474.815h-.137l-.291.486-.306.039-.166.648-1.213,1.664-.411.2v.463c.1-.054.183-.073.221-.126a3.153,3.153,0,0,0,.2-.36l.38-.2-.026-.027c.337-.342.679-.679,1.009-1.026a6.542,6.542,0,0,0,.718-.7c.073-.1.239-.143.377-.221l.023-.154c.032,0,.063-.014.082,0a5.98,5.98,0,0,1,.566.306.5.5,0,0,1,.217.7c-.083.216-.2.419-.3.628l-.178.354c.091.372.423.442.668.65l.088.234a2.352,2.352,0,0,1-.554,1.083c-.307.4-.593.814-.915,1.2a3.457,3.457,0,0,0-.571.827c-.029.064-.11.106-.168.158s-.163.1-.2.178a.5.5,0,0,1-.257.264c-.067.033-.1.142-.148.223l-.141-.071-.2.356.034.265-.78.755.145.027-.674.791-.293.047a2.784,2.784,0,0,1-.085.407,2.987,2.987,0,0,1-.2.374l-.049-.034-.295.324.1-.582a6.681,6.681,0,0,0-.5.562c-.13.185-.409.254-.44.561a.825.825,0,0,0,.508-.28A.193.193,0,0,1,253.631,71.366ZM242.4,72.989a1.225,1.225,0,0,1-.19.281,8.606,8.606,0,0,0-.758.923c-.128.144-.233.308-.362.452-.153.17-.329.32-.48.492a1.6,1.6,0,0,0-.166.3,1.269,1.269,0,0,1,.2.113,1.084,1.084,0,0,1,.129.154.836.836,0,0,0,.4-.512c.157-.166.265-.277.367-.392a2.506,2.506,0,0,1,.194-.24,5.237,5.237,0,0,0,.748-.778c.033-.043.1-.059.157-.088s.121-.015.136-.046a4.988,4.988,0,0,1,.959-1.061,1.1,1.1,0,0,1,.283-.152c.243.184.578,0,.815.239l.375.683a4.332,4.332,0,0,0,.515.107.657.657,0,0,1,.386.162l.216.191a.214.214,0,0,0-.027.031.333.333,0,0,0-.025.069,2.454,2.454,0,0,1-.658,1.3,6.944,6.944,0,0,0-.92,1.335c-.024.04,0,.109,0,.186a.658.658,0,0,0,.144-.058c.348-.288.7-.571,1.042-.872.554-.488,1.1-.987,1.646-1.484.306-.279.6-.576.919-.838.134-.109.269-.218.4-.326a2.617,2.617,0,0,1,.39-.218l.726-.043c.191-.385.683-.5.779-.938l.244-.113.146-.484-.28-.587a1.231,1.231,0,0,1,.359-.6.55.55,0,0,0,.239-.408c-.047-.233-.227-.3-.4-.35a.808.808,0,0,1-.436-.31,6.243,6.243,0,0,1-.324-.577c.082-.242.141-.441.215-.633a6.174,6.174,0,0,1,1.023-1.731,3.983,3.983,0,0,0,.28-.456,1.409,1.409,0,0,0-.267-.277,1.179,1.179,0,0,1-.584-.7l.074-.723c.067.065.143.143.226.21.015.013.066-.021.12-.038l-.125-.2a3.454,3.454,0,0,1,.731-1.027.311.311,0,0,0,.073-.137,1.017,1.017,0,0,1,.479-.6.588.588,0,0,0,.192-.245c.1-.176.185-.36.266-.518l.224-.054-.07-.111a.807.807,0,0,0,.295-.625,2.937,2.937,0,0,1-.779.851l-.055-.281h-.054l-.043.386-.375-.081.007-.054.176-.015c.042-.1.081-.191.115-.281a.817.817,0,0,0,.029-.105h-.312l-.114.272-.231.12v.125c-.105.078-.253.129-.278.217-.061.209-.246.291-.36.441a.4.4,0,0,1-.479.135c-.182-.292-.563-.45-.691-.84l.484-.84.162-.063a2.265,2.265,0,0,0,.047-.392,1.662,1.662,0,0,0-.095-.345l.3-.23c-.021-.035-.029-.069-.047-.077a.587.587,0,0,1-.428-.4c-.054-.2-.353-.222-.4-.45-.011-.05-.018-.1-.029-.158a2.281,2.281,0,0,0,.511-.842c-.245-.075-.247-.078-.39.063-.231.226-.455.46-.689.682-.089.083-.239.12-.3.216a1.214,1.214,0,0,1-.635.438l-.151.416-.507.128-.7-.8c-.1-.368.126-.632.182-.9a.535.535,0,0,0-.289-.376c-.444-.3-.9-.6-.737-1.26.017-.069-.058-.16-.1-.266l-.578.072a1.571,1.571,0,0,1-.981-.817l-.062-.505.04-.008.131.328.074-.015a1.617,1.617,0,0,1,.094-.925l-.249.157-.107-.182-.316.257a.845.845,0,0,1-.681-.433c-.013-.025-.061-.033-.086-.045l-.257.29.048-.29-.279-.4.062-.271a1.176,1.176,0,0,0-.94-.737l-.622.4-.6.109a1.243,1.243,0,0,1-1.1-.159c-.209-.17-.354-.122-.546.077-.1.1-.19.2-.305.327.08.177-.126.287-.181.448l-.054.424-.151-.206a2.65,2.65,0,0,0-.334.473,1.441,1.441,0,0,1-.424.628,1.686,1.686,0,0,0-.209.231,6.92,6.92,0,0,0-.785,1.33c-.011.021,0,.051,0,.137l.449.623a3.73,3.73,0,0,1-.425.989,7.818,7.818,0,0,0-.41.859c-.214.055-.294.278-.418.448s-.231.369-.356.572l.266.37c.211.008.29-.127.394-.218.511-.451.378-.316.933-.217a.546.546,0,0,1,.072.027.536.536,0,0,1,.4.691,5.428,5.428,0,0,1-1.015,2.11c-.28.372-.481.787-.758,1.157a.382.382,0,0,0-.1.4c.115-.426.551-.578.758-.927a.515.515,0,0,0,.647.034c.451.138.928.209,1.018.78-.112.282-.126.614-.409.811-.017.011-.015.049-.027.071a1.586,1.586,0,0,1-.5.674.528.528,0,0,0-.171.253,3.2,3.2,0,0,1-.817,1.177l.029.173.145-.2v.411a1.052,1.052,0,0,0,.31-.067.954.954,0,0,0,.284-.261,11.265,11.265,0,0,1,1.492-1.488,1.312,1.312,0,0,1,1.09.708c-.057.322-.366.551-.173.883a6.976,6.976,0,0,1,.708.177,1.221,1.221,0,0,1,.534.458.749.749,0,0,1-.17.643c-.094.139-.211.263-.308.4-.186.264-.366.532-.545.8a.382.382,0,0,0-.021.126l.166.145.6-.033.706.656-.186.416.154.232c.439.121.6-.278.871-.427h.392c.141.078.3.184.479.262a.387.387,0,0,1,.222.481.821.821,0,0,1-.126.323C242.779,72.531,242.586,72.757,242.4,72.989Zm10.722-23.943c.324-.007.355-.326.552-.45.015-.009.014-.045.025-.089l-.3-.106C253.136,48.734,253.136,48.734,253.122,49.047Zm.362,11.045c-.316.095-.471.372-.771.46-.077.023-.125.153-.182.237-.009.015,0,.046.008.082h.237Z" transform="translate(-34.567 -33.399)" fill="#6468e6"/>
      <path id="Path_5" data-name="Path 5" d="M226.916,55.142l.532-.432c.133-.3.459-.508.712-.779s.5-.548.787-.864l.026-.221c.016.032.033.05.032.066a.5.5,0,0,0,.412.538c.211.049.28.206.416.287a4.065,4.065,0,0,1-.064,1.049,5.807,5.807,0,0,0-.8,1.24c-.238.382-.432.792-.67,1.233.013.107,0,.291.233.306.355-.1.347-.518.649-.692a1.915,1.915,0,0,1,.9.257.38.38,0,0,1,.144.514c-.111.289-.237.574-.376.851a.6.6,0,0,0-.083.553c.361.189.881.187,1.132.776a1.073,1.073,0,0,1-.127.56,12.288,12.288,0,0,1-.964,1.544,2.723,2.723,0,0,1-.441.56c-.141.134-.283.264-.44.41l.023.29-.165.1c-.006.01-.019.022-.017.03.082.3-.182.406-.327.569a1.863,1.863,0,0,0-.448.842c-.01.047.032.105.051.165.4-.243.608-.672,1.015-.931a.493.493,0,0,1,.416-.414.786.786,0,0,1,.764.444l.127-.239a.4.4,0,0,1,.05.072,1.745,1.745,0,0,1-.281,1.548c-.174.3-.364.6-.546.895a.211.211,0,0,0-.033.071,3.891,3.891,0,0,1-.506,1.1c-.089.154-.282.218-.306.454a.676.676,0,0,0,.542.563c.211.041.232.287.29.519a6.363,6.363,0,0,1-.518.739,6.454,6.454,0,0,1-.912,1.083c-.043.032-.03.135-.066.19a5.4,5.4,0,0,1-.858,1.018,8.263,8.263,0,0,0-.615.744c-.281.322-.574.633-.866.945a1.231,1.231,0,0,0-.274.41,2.011,2.011,0,0,1-.369.522c-.2.242-.434.463-.634.707a4.442,4.442,0,0,0-.468.662.8.8,0,0,1-.468.362,1.006,1.006,0,0,0-.5.4c-.34.48-.713.937-1.074,1.4-.2.264-.41.526-.6.775l-.259-.037.026.216c-.107.313-.484.45-.495.814-.3.009-.593,0-.884.035a2.384,2.384,0,0,0-.524.213.8.8,0,0,1-.58-.166.782.782,0,0,0-.667-.1c-.086.1-.17.208-.258.312a1.712,1.712,0,0,0-.227.265.577.577,0,0,1-.436.3,1.438,1.438,0,0,1-1.02-1.028h-.257a.384.384,0,0,1,.023-.123,3.428,3.428,0,0,0,.291-.409.724.724,0,0,0,.024-.331c0-.022-.072-.04-.176-.094l.1.337-.254-.014-.524.938c-.167.159-.38.364-.6.568a.459.459,0,0,1-.716.015,1.117,1.117,0,0,1-.417-.5l-.467-.248a.675.675,0,0,0-.506.364,2.275,2.275,0,0,1-.844.85.729.729,0,0,1-.885-.438c-.231-.145-.29-.466-.546-.554-.253-.023-.425.229-.659.126-.2-.089-.393-.2-.6-.307l-.3-.814-.239.045a.474.474,0,0,0,.015-.107.552.552,0,0,0-.3-.427.807.807,0,0,1-.366-.44c-.095-.279-.091-.28-.378-.375l-.947.911a11.041,11.041,0,0,1-1.1-.737,3,3,0,0,1-.065-.332,2.648,2.648,0,0,1,.014-.338l.206.177.238-.6.041.014v-.352l-.392-.246-.105.089a2.2,2.2,0,0,1-.377-.516,2.141,2.141,0,0,1-.014-.655l-.149-.127-.191.346a.522.522,0,0,1-.676.035l-.115.129-.695-.739a1.242,1.242,0,0,1,.21-.819c.109-.181.3-.34.255-.586a.557.557,0,0,0-.338-.242,3.992,3.992,0,0,1-.708-.39c-.1-.066-.142-.208-.216-.324a8,8,0,0,1,1.427-2.206c-.249-.143-.253-.146-.419.014a3.125,3.125,0,0,1-.515.4c-.276.174-.5.045-.714-.051a2.2,2.2,0,0,1-.483-.384.6.6,0,0,1-.209-.416h.179l-.093-.223.615-1.239.2-.071-.039-.2.173-.242.174.077c.185-.106-.013-.241.023-.364l.307-.468-.034-.026-.232.157-.045-.332-.554-.473a1.329,1.329,0,0,1,.3-1.13c.083-.1.078-.274.12-.447l.09.249a10.988,10.988,0,0,1,1.129-1.808l.053-.284a1.117,1.117,0,0,0-.483-.464.621.621,0,0,1-.4-.507,1.8,1.8,0,0,1,.3-.641,1.48,1.48,0,0,0,.171-.576.39.39,0,0,1,.1-.231l-.039.369.266.157-.165-.259c.13-.223.269-.441.388-.67a.967.967,0,0,0-.072-1.324,5.029,5.029,0,0,1,.924-1.309c.042-.261.329-.346.414-.594a1.113,1.113,0,0,1,.345-.406c.332-.3.462-.746.8-1.056l-.079-.512c.41-.48.815-.967,1.236-1.44a3.615,3.615,0,0,0,.569-.673.873.873,0,0,1,.274-.274,2.659,2.659,0,0,0,.588-.662c.42-.591.823-1.2,1.245-1.784.249-.346.524-.674.807-1.035l-.053-.4c.115-.093.2.014.263.049l.545-.752a1.215,1.215,0,0,0,.839-.5c.151-.193.33-.364.481-.529a2.169,2.169,0,0,1,.7.067,1.874,1.874,0,0,0,.647.015l.69-.543a1.579,1.579,0,0,1,1.083.191.833.833,0,0,0,.462.427c.409-.079.657-.442.976-.681a1.262,1.262,0,0,1,1.045.254l.242.457a.544.544,0,0,0,.625-.138c.263-.267.506-.555.767-.825.141-.147.3-.278.454-.418a6.035,6.035,0,0,1,.646.248.592.592,0,0,1,.339.767.916.916,0,0,0-.018.193,1.092,1.092,0,0,0,.018.161.23.23,0,0,0,.29.121,1.078,1.078,0,0,0,.354-.211,1.747,1.747,0,0,1,.586-.468,2.329,2.329,0,0,1,.719.338c.238.183.233.486.388.7a.275.275,0,0,0,.334-.016.686.686,0,0,1,.9-.026c.079.046.16.086.233.125.238.2.137.524.282.76.123-.155.257.008.39,0a1.233,1.233,0,0,1,.476.136c.144.056.279.131.43.2l.23-.05-.336,1.477c.149.167.244.355.491.287.309.142.667.2.794.6a.79.79,0,0,1,.033.492,1.062,1.062,0,0,0-.009.62l-.234.217.039-.273c-.022-.007-.049-.025-.063-.018a.538.538,0,0,0-.317.57,1.621,1.621,0,0,1-.019.281,2.22,2.22,0,0,0-.457.752,2.968,2.968,0,0,1-.534.889,4.919,4.919,0,0,0-.4.552,1.562,1.562,0,0,1-.208.185l-.049.363.182.163.167-.221c.105-.09.216-.176.313-.274S226.918,55.306,226.916,55.142Zm-3.279,1.715.419-.269a2.17,2.17,0,0,1,.636-.858l-.085-.175.063-.13.355-.141-.122-.217.16-.354a2.091,2.091,0,0,0-.927,1.1l-.255.147c-.094.15-.176.264-.238.388a1.82,1.82,0,0,0-.089.287,2.1,2.1,0,0,1-.145.173c-.073.07-.039.136-.008.2a.361.361,0,0,0-.34.147c-.113.141-.223.285-.344.418a7.959,7.959,0,0,0-.865,1.08c-.056.09-.176.142-.259.206-.3-.15-.51-.424-.863-.379l-.223-.307c.022-.079.041-.165.07-.248a2.041,2.041,0,0,0,.094-.248,3,3,0,0,1,.435-.984c.259-.43.529-.854.79-1.283a1.7,1.7,0,0,0,.1-.279,22.64,22.64,0,0,0-1.971,1.851.632.632,0,0,1-.587-.1c-.221-.2-.418-.42-.611-.617l.128-.715-.247.018-.15-.159-.321.023c-.135-.106-.311-.184-.39-.319a1.277,1.277,0,0,0-.688-.529h.4c.109-.153.184-.279.094-.454l-.476.147-.025.3c-.025,0-.065,0-.074.013-.152.231-.41.362-.546.615-.058.109-.223.16-.329.231-.417-.134-.623-.508-.965-.666a1.357,1.357,0,0,1,.27-1.185c.09-.134.166-.278.249-.416l-.047-.038-.337.286.019-.3-.248-.058c0,.083.027.143.008.183-.142.288-.478.285-.657.41l-.268.67a3.135,3.135,0,0,0-.339.062.473.473,0,0,1-.571-.2,3.687,3.687,0,0,0-.471-.443c-.055.032-.087.053-.12.071s-.077.039-.149.075c.2-.467.193-.49-.161-.778l.206-.12-.72-.306.026-.039-.355-.46-.1.288-.248-.154-.233.093-.32.407a.65.65,0,0,1-.285.57c-.085.055-.111.2-.163.3l-.3.114-.1.536.417.348-.089.219.258.12.067-.364a1.034,1.034,0,0,1-.189.8c-.12.194-.213.407-.305.588l-.053-.09c-.09.154-.176.308-.27.459s-.208.321-.313.482l-.19.027.13.222.17-.01.065.251c.3.265.809.257.9.772-.048.1-.095.226-.158.338-.223.4-.45.787-.676,1.181-.025.045-.046.094-.075.136-.352.512-.7,1.026-1.059,1.534a2.373,2.373,0,0,1-.347.414,1.994,1.994,0,0,0-.385.572.217.217,0,0,0,.059.295l.318-.037,1.087-1.331c.408-.089.617.158.851.334l-.115,1.069.085.15a1.557,1.557,0,0,1-.391.672c-.119.135-.255.271-.177.492a1.029,1.029,0,0,0,.587.209.839.839,0,0,1,.779.547c.022.272.054.551-.251.714-.019.011-.026.045-.041.065a5.641,5.641,0,0,1-.761,1.012c-.067.059-.061.2-.112.283a2.255,2.255,0,0,1-.193.215c-.017.022,0,.071,0,.113l-.31.142c.194.2-.238.315-.063.535l.315-.331.246.2c.368-.235.646-.016.95.065l.388.941,1.123,1.04a6.394,6.394,0,0,1-1.532,1.779.851.851,0,0,0-.073.152,2.158,2.158,0,0,0-.05.237l-.4.1.121.238a.6.6,0,0,0-.089.207,1,1,0,0,1-.338.673,1.077,1.077,0,0,0-.2.331,1.106,1.106,0,0,0,0,.319c.119-.073.234-.1.248-.159.054-.217.215-.306.382-.415a1.19,1.19,0,0,0,.321-.329A3.473,3.473,0,0,1,211.5,72c.011-.273.288-.346.449-.523a1.35,1.35,0,0,1,.548-.436l.21-.4a1.088,1.088,0,0,1,1.111.294,1.531,1.531,0,0,0,.734.434,1.314,1.314,0,0,1,.546.367l-.169.213.1.2c-.119.3-.4.51-.237.859h.286l.569-.646a2.975,2.975,0,0,1,.483.006,3.406,3.406,0,0,1,.478.151l.314.4c-.142.232-.275.433-.39.644s-.354.382-.366.694h.315l.539-.534a1.1,1.1,0,0,1,.707.023.753.753,0,0,1,.443.471c-.173.089-.15.272-.221.412s-.161.285-.259.457l-.2.1-.046.542.15.135a5.367,5.367,0,0,1,1.317-1.025h.162l.073-.407a3.154,3.154,0,0,1,1.155-.843l.535.111.391.371.163-.087.176.147.262-.355.2.106a.522.522,0,0,1,.583.032.523.523,0,0,0,.538.074c.014,0,.037.021.064.038v.206a6.433,6.433,0,0,0,.507-.728,3.972,3.972,0,0,1,.791-1.1,1.374,1.374,0,0,0,.342-.583c.051-.145.027-.342.229-.407a.958.958,0,0,1,.2-.431c.029-.041.105-.049.16-.073l.24-.59-.249-.213-.34.154c-.04.331-.362.409-.524.636a2.566,2.566,0,0,0-.4-.215c-.143-.047-.149-.281-.345-.233-.073-.136-.157-.267-.217-.409a.45.45,0,0,1,.049-.369c.1-.229.105-.5.315-.6.082-.233.145-.415.209-.6s.136-.388.207-.592l-.065-.282-.423-.21c-.127-.174-.309-.342-.225-.608-.231-.263-.019-.449.1-.61.024-.167.05-.294.057-.423s-.006-.27-.01-.411a.714.714,0,0,1-.6-.554l-.249-.176c.009-.114.183-.175.034-.294l-.146.062c.072-.3.118-.6.211-.874.136-.4.42-.738.53-1.156.015-.059.073-.106.106-.162.16-.263.346-.519.483-.786.187-.363.339-.75.519-1.121a.952.952,0,0,0,.023-.318,1.184,1.184,0,0,0-.689.39,3.624,3.624,0,0,1-.8.826.618.618,0,0,0-.207.23.639.639,0,0,1-.75.335l-.889-.783c.072-.419.351-.758.256-1.185h.146a2.314,2.314,0,0,1,.155-.4c.192-.307.4-.608.6-.9a6.458,6.458,0,0,1,.537-.713.907.907,0,0,0,.305-.753A.235.235,0,0,0,223.636,56.857Zm2.17,12.365a.427.427,0,0,1-.151.376c-.038.032-.034.114-.069.247l.476-.428v.559a9.233,9.233,0,0,0,.474-.893,8.645,8.645,0,0,1,.433-.936l-.045-.032-.543.418-.344.625Zm.087-10.415c.355-.306.214-.791.418-1.143l-.768.729V58.7l.232-.087ZM214.906,75.766c.04-.161.257-.16.2-.362l-.146-.032-.367.428-.055.515.6-.371.066-.153-.234.081ZM209.2,64.434l.129-.454-.227-.173-.282.513Zm17.54-13.966-.336.585c.126.136.207.063.279-.016.093-.1.13-.262.3-.282.011,0,.018-.031.03-.05l-.189-.043Zm-22,18.163c.111-.162.218-.316.321-.474a.328.328,0,0,0,.023-.112l-.227-.064c-.056.114-.191.175-.138.34.018.058-.067.147-.1.225-.007.017.013.045.022.074Z" transform="translate(-38.478 -33.273)" fill="#6468e6"/>
      <path id="Path_6" data-name="Path 6" d="M126.667,55.142l.531-.432c.133-.3.459-.508.712-.779s.5-.548.787-.864l.026-.221c.016.032.034.05.032.066a.5.5,0,0,0,.412.538c.211.049.28.206.416.287a4.016,4.016,0,0,1-.064,1.049,5.806,5.806,0,0,0-.8,1.24c-.239.382-.433.792-.671,1.233.013.107,0,.291.233.306.355-.1.347-.518.65-.692a1.915,1.915,0,0,1,.9.257.379.379,0,0,1,.143.514,9.084,9.084,0,0,1-.376.851.6.6,0,0,0-.082.553c.36.189.881.187,1.131.776a1.062,1.062,0,0,1-.127.56,12.278,12.278,0,0,1-.963,1.544,2.728,2.728,0,0,1-.442.56c-.141.134-.282.264-.44.41l.023.29-.165.1c-.006.01-.019.022-.017.03.082.3-.181.406-.327.569a1.875,1.875,0,0,0-.448.842c-.01.047.032.105.051.165.406-.243.608-.672,1.016-.931a.491.491,0,0,1,.416-.414.785.785,0,0,1,.763.444l.127-.239a.427.427,0,0,1,.051.072,1.749,1.749,0,0,1-.282,1.548c-.174.3-.363.6-.546.895a.236.236,0,0,0-.033.071,3.859,3.859,0,0,1-.506,1.1c-.089.154-.282.218-.306.454a.678.678,0,0,0,.543.563c.21.041.232.287.29.519a6.657,6.657,0,0,1-.518.739,6.508,6.508,0,0,1-.912,1.083c-.045.032-.031.135-.067.19a5.357,5.357,0,0,1-.858,1.018,8.673,8.673,0,0,0-.615.744c-.281.322-.574.633-.866.945a1.249,1.249,0,0,0-.274.41,1.984,1.984,0,0,1-.369.522c-.2.242-.433.463-.634.707a4.441,4.441,0,0,0-.468.662.8.8,0,0,1-.467.362,1,1,0,0,0-.5.4c-.342.48-.714.937-1.074,1.4-.2.264-.41.526-.6.775l-.259-.037.026.216c-.106.313-.483.45-.495.814-.295.009-.593,0-.884.035a2.407,2.407,0,0,0-.524.213.8.8,0,0,1-.579-.166.786.786,0,0,0-.668-.1c-.085.1-.17.208-.258.312a1.645,1.645,0,0,0-.226.265.581.581,0,0,1-.438.3,1.435,1.435,0,0,1-1.019-1.028h-.258a.35.35,0,0,1,.024-.123,3.416,3.416,0,0,0,.29-.409.724.724,0,0,0,.024-.331c0-.022-.072-.04-.175-.094l.1.337-.253-.014-.524.938c-.167.159-.382.364-.6.568a.459.459,0,0,1-.716.015,1.125,1.125,0,0,1-.417-.5L112.8,79.9a.671.671,0,0,0-.506.364,2.27,2.27,0,0,1-.845.85.729.729,0,0,1-.885-.438c-.23-.145-.29-.466-.546-.554-.251-.023-.425.229-.658.126-.2-.089-.394-.2-.6-.307l-.3-.814-.239.045a.475.475,0,0,0,.015-.107.549.549,0,0,0-.3-.427.81.81,0,0,1-.364-.44c-.1-.279-.093-.28-.379-.375l-.947.911a11.038,11.038,0,0,1-1.1-.737,3.285,3.285,0,0,1-.065-.332,2.645,2.645,0,0,1,.014-.338l.206.177.239-.6.041.014v-.352l-.392-.246-.106.089a2.2,2.2,0,0,1-.377-.516,2.141,2.141,0,0,1-.014-.655l-.147-.127-.191.346a.523.523,0,0,1-.678.035l-.115.129-.694-.739a1.235,1.235,0,0,1,.21-.819c.107-.181.3-.34.254-.586a.551.551,0,0,0-.338-.242,3.944,3.944,0,0,1-.707-.39c-.1-.066-.142-.208-.216-.324a7.977,7.977,0,0,1,1.427-2.206c-.25-.143-.254-.146-.42.014a3.115,3.115,0,0,1-.514.4c-.276.174-.5.045-.715-.051a2.172,2.172,0,0,1-.482-.384.6.6,0,0,1-.21-.416h.179l-.093-.223.616-1.239.2-.071-.039-.2.173-.242.174.077c.184-.106-.014-.241.022-.364l.307-.468-.034-.026-.231.157-.045-.332-.555-.473a1.326,1.326,0,0,1,.3-1.13,1.246,1.246,0,0,0,.119-.447l.09.249a10.918,10.918,0,0,1,1.13-1.808l.053-.284a1.129,1.129,0,0,0-.483-.464.617.617,0,0,1-.4-.507,1.779,1.779,0,0,1,.3-.641,1.461,1.461,0,0,0,.171-.576.4.4,0,0,1,.1-.231l-.039.369.267.157-.165-.259c.129-.223.267-.441.388-.67a.968.968,0,0,0-.073-1.324A5.029,5.029,0,0,1,104.5,57.6c.043-.261.329-.346.414-.594a1.135,1.135,0,0,1,.345-.406c.332-.3.463-.746.8-1.056l-.079-.512c.41-.48.815-.967,1.236-1.44a3.622,3.622,0,0,0,.57-.673.881.881,0,0,1,.273-.274,2.637,2.637,0,0,0,.588-.662c.422-.591.823-1.2,1.245-1.784.249-.346.524-.674.808-1.035l-.054-.4c.117-.093.2.014.263.049l.545-.752a1.212,1.212,0,0,0,.839-.5c.152-.193.33-.364.482-.529a2.165,2.165,0,0,1,.695.067,1.875,1.875,0,0,0,.647.015l.69-.543a1.582,1.582,0,0,1,1.084.191.831.831,0,0,0,.46.427c.409-.079.657-.442.976-.681a1.261,1.261,0,0,1,1.045.254l.242.457a.544.544,0,0,0,.625-.138c.264-.267.506-.555.767-.825.142-.147.3-.278.455-.418a6.228,6.228,0,0,1,.646.248.59.59,0,0,1,.338.767,1,1,0,0,0-.018.193,1.276,1.276,0,0,0,.018.161.231.231,0,0,0,.29.121,1.078,1.078,0,0,0,.354-.211,1.747,1.747,0,0,1,.586-.468,2.318,2.318,0,0,1,.719.338c.238.183.233.486.388.7a.277.277,0,0,0,.335-.016.684.684,0,0,1,.895-.026c.079.046.16.086.234.125.237.2.137.524.281.76.123-.155.257.008.39,0a1.232,1.232,0,0,1,.476.136c.144.056.28.131.431.2l.23-.05-.336,1.477c.149.167.243.355.49.287.308.142.667.2.794.6a.79.79,0,0,1,.033.492,1.062,1.062,0,0,0-.009.62l-.234.217.04-.273c-.022-.007-.05-.025-.064-.018a.54.54,0,0,0-.316.57,1.624,1.624,0,0,1-.019.281,2.2,2.2,0,0,0-.456.752,2.971,2.971,0,0,1-.535.889,5.07,5.07,0,0,0-.4.552,1.561,1.561,0,0,1-.208.185l-.049.363.182.163.167-.221c.105-.09.216-.176.313-.274S126.668,55.306,126.667,55.142Zm-3.28,1.715.419-.269a2.182,2.182,0,0,1,.636-.858l-.083-.175.063-.13.354-.141-.122-.217.16-.354a2.1,2.1,0,0,0-.927,1.1l-.255.147c-.093.15-.175.264-.238.388a1.819,1.819,0,0,0-.089.287,1.9,1.9,0,0,1-.145.173c-.073.07-.038.136-.007.2a.36.36,0,0,0-.34.147c-.114.141-.224.285-.344.418a7.788,7.788,0,0,0-.865,1.08.983.983,0,0,1-.261.206c-.3-.15-.51-.424-.863-.379l-.223-.307c.022-.079.042-.165.07-.248a1.873,1.873,0,0,0,.095-.248,2.994,2.994,0,0,1,.434-.984c.259-.43.53-.854.79-1.283a1.7,1.7,0,0,0,.1-.279,22.8,22.8,0,0,0-1.971,1.851.632.632,0,0,1-.587-.1c-.221-.2-.418-.42-.61-.617l.127-.715-.247.018-.149-.159-.321.023c-.136-.106-.311-.184-.391-.319a1.277,1.277,0,0,0-.688-.529h.406c.109-.153.184-.279.093-.454l-.475.147-.026.3c-.025,0-.065,0-.074.013-.152.231-.41.362-.546.615-.058.109-.223.16-.328.231-.418-.134-.624-.508-.967-.666a1.36,1.36,0,0,1,.27-1.185c.09-.134.167-.278.249-.416l-.046-.038-.338.286.019-.3-.248-.058c.006.083.027.143.008.183-.142.288-.478.285-.657.41l-.269.67a3.187,3.187,0,0,0-.339.062.473.473,0,0,1-.571-.2,3.676,3.676,0,0,0-.47-.443c-.055.032-.087.053-.12.071s-.077.039-.15.075c.2-.467.193-.49-.16-.778l.206-.12-.721-.306.026-.039-.355-.46-.1.288-.248-.154-.232.093-.321.407a.65.65,0,0,1-.285.57c-.083.055-.111.2-.163.3l-.3.114-.1.536.417.348-.089.219.259.12.067-.364a1.039,1.039,0,0,1-.189.8c-.121.194-.214.407-.306.588l-.053-.09c-.09.154-.176.308-.268.459s-.209.321-.313.482l-.191.027.13.222.171-.01.065.251c.3.265.809.257.9.772-.048.1-.094.226-.158.338-.222.4-.45.787-.675,1.181-.026.045-.047.094-.075.136-.352.512-.7,1.026-1.06,1.534a2.371,2.371,0,0,1-.347.414,1.994,1.994,0,0,0-.385.572.218.218,0,0,0,.061.295l.316-.037,1.087-1.331c.408-.089.618.158.852.334l-.117,1.069.085.15a1.557,1.557,0,0,1-.391.672c-.119.135-.255.271-.177.492a1.032,1.032,0,0,0,.587.209.837.837,0,0,1,.779.547c.022.272.054.551-.25.714-.021.011-.027.045-.042.065a5.642,5.642,0,0,1-.761,1.012c-.067.059-.059.2-.112.283a2.26,2.26,0,0,1-.193.215c-.017.022,0,.071,0,.113l-.308.142c.193.2-.238.315-.064.535l.315-.331.246.2c.369-.235.647-.016.949.065l.39.941,1.122,1.04a6.394,6.394,0,0,1-1.532,1.779.85.85,0,0,0-.073.152,1.9,1.9,0,0,0-.049.237l-.4.1.121.238a.6.6,0,0,0-.089.207.993.993,0,0,1-.338.673.68.68,0,0,0-.206.65c.12-.073.234-.1.248-.159.055-.217.215-.306.383-.415a1.223,1.223,0,0,0,.321-.329A3.453,3.453,0,0,1,111.245,72c.011-.273.289-.346.449-.523a1.345,1.345,0,0,1,.55-.436l.209-.4a1.088,1.088,0,0,1,1.111.294,1.536,1.536,0,0,0,.734.434,1.307,1.307,0,0,1,.546.367l-.168.213.1.2c-.119.3-.4.51-.237.859h.286l.569-.646a2.972,2.972,0,0,1,.483.006,3.405,3.405,0,0,1,.478.151l.314.4c-.141.232-.275.433-.39.644s-.354.382-.366.694h.315l.539-.534a1.1,1.1,0,0,1,.707.023.747.747,0,0,1,.443.471c-.173.089-.15.272-.221.412s-.16.285-.259.457l-.2.1-.047.542.15.135a5.387,5.387,0,0,1,1.317-1.025h.162l.074-.407a3.15,3.15,0,0,1,1.154-.843l.535.111.391.371.163-.087.176.147.262-.355.2.106a.524.524,0,0,1,.584.032.523.523,0,0,0,.538.074c.014,0,.035.021.063.038v.206a6.607,6.607,0,0,0,.508-.728,3.925,3.925,0,0,1,.791-1.1,1.386,1.386,0,0,0,.342-.583c.051-.145.027-.342.227-.407a.983.983,0,0,1,.2-.431c.03-.041.106-.049.16-.073l.24-.59-.248-.213-.342.154c-.04.331-.361.409-.524.636a2.559,2.559,0,0,0-.4-.215c-.143-.047-.149-.281-.346-.233-.073-.136-.157-.267-.216-.409a.446.446,0,0,1,.048-.369c.1-.229.106-.5.316-.6.081-.233.145-.415.208-.6s.136-.388.208-.592l-.065-.282-.424-.21c-.127-.174-.308-.342-.224-.608-.231-.263-.021-.449.1-.61.023-.167.05-.294.056-.423s0-.27-.009-.411a.715.715,0,0,1-.6-.554l-.249-.176c.01-.114.183-.175.035-.294l-.146.062c.071-.3.117-.6.21-.874.137-.4.422-.738.53-1.156.015-.059.073-.106.106-.162.161-.263.346-.519.483-.786.187-.363.34-.75.519-1.121a.952.952,0,0,0,.023-.318,1.188,1.188,0,0,0-.689.39,3.6,3.6,0,0,1-.8.826.618.618,0,0,0-.207.23.639.639,0,0,1-.75.335l-.888-.783c.072-.419.35-.758.255-1.185h.147a2.223,2.223,0,0,1,.155-.4c.191-.307.4-.608.6-.9a6.472,6.472,0,0,1,.538-.713.91.91,0,0,0,.3-.753A.235.235,0,0,0,123.386,56.857Zm2.17,12.365a.429.429,0,0,1-.15.376c-.039.032-.034.114-.069.247l.475-.428v.559a9.524,9.524,0,0,0,.475-.893,8.426,8.426,0,0,1,.432-.936l-.045-.032-.542.418-.345.625Zm.088-10.415c.354-.306.213-.791.418-1.143l-.769.729V58.7l.233-.087ZM114.657,75.766c.04-.161.256-.16.2-.362l-.145-.032-.368.428-.055.515.606-.371.065-.153-.233.081ZM108.95,64.434l.128-.454-.227-.173-.281.513Zm17.538-13.966-.336.585c.126.136.208.063.28-.016.093-.1.13-.262.3-.282.011,0,.019-.031.031-.05l-.189-.043Zm-22,18.163c.111-.162.218-.316.321-.474a.328.328,0,0,0,.023-.112l-.227-.064c-.055.114-.191.175-.138.34.019.058-.067.147-.1.225-.007.017.011.045.021.074Z" transform="translate(-52.771 -33.273)" fill="#6468e6"/>
      <path id="Path_7" data-name="Path 7" d="M299.391,63.842l.191-.166a1.107,1.107,0,0,0-.3-.046.63.63,0,0,0-.28.133c-.374.337-.836.555-1.186.933-.4.436-.861.822-1.315,1.248a2.056,2.056,0,0,1-.367-.077,1.829,1.829,0,0,0-1.592-.1l-.306-.134a.814.814,0,0,0-.676.412,1.034,1.034,0,0,1-.588.464c0,.035-.016.067,0,.082a.931.931,0,0,1,.175.906,1.515,1.515,0,0,0-.008.454,2.138,2.138,0,0,0,.356.282,1.2,1.2,0,0,1,.578.608c-.03.41-.449.675-.392,1.147l-.107-.193-.2.211c.113.1.209.178.3.142l.828.57a1.012,1.012,0,0,0,0,.261.516.516,0,0,1-.148.491c-.161.184-.315.375-.436.52l-.041.658a2.077,2.077,0,0,0,.647-.671c.032-.072.129-.121.2-.165a1.945,1.945,0,0,1,.262-.106l-.1-.214.057-.022c.173.248.439.179.732.2l.608.681a.61.61,0,0,0,.516-.219c.206-.2.415-.39.63-.576a3.054,3.054,0,0,1,.326-.219c.351.147.8.067.985.528-.023.1-.042.2-.07.3a1.474,1.474,0,0,1-.378.7,1.165,1.165,0,0,0-.376.6l.1.224.483.232-.316.117.094.386c.143-.223.278-.353.518-.31.151.026.256-.1.358-.2.146-.145.274-.318.435-.351.487,0,.785.316,1.156.457a1.072,1.072,0,0,0,.655-.467.843.843,0,0,1,.216-.221c.36-.275.724-.544,1.136-.852a2.087,2.087,0,0,1,.356-.023.924.924,0,0,0,.737-.292c.231-.227.44-.476.667-.707.145-.147.305-.279.457-.419.113-.105.227-.213.337-.322.359-.355.715-.713,1.085-1.083a1.391,1.391,0,0,1,1.112.6v.368l-.352.67-.039-.1a1.458,1.458,0,0,1-.283.2,1.579,1.579,0,0,1-.342.054.9.9,0,0,0-.46.274c-.141.128-.3.24-.478.385-.385.407-.8.848-1.218,1.287s-.818.855-1.239,1.266c-.131.191-.251.393-.4.571a6.7,6.7,0,0,0-.545.622,2.785,2.785,0,0,1-.5.681c-.118.1-.245.193-.354.3a6.763,6.763,0,0,0-.63.686c-.27.347-.59.655-.884.983a2.037,2.037,0,0,0-.259.337,1.247,1.247,0,0,0-.073.324l.5.049v.016h-.524l-.159-.173c-.049.034-.142.064-.146.1-.043.364-.4.5-.561.775-.034.057-.161.071-.248.081a1.512,1.512,0,0,1-.281-.015l-.563-.825c-.424.083-.531.488-.9.691l.6.037,0,.042c-.074,0-.151.006-.225,0a.974.974,0,0,0-.808.392c-.114.123-.23.247-.34.375a.68.68,0,0,1-1.028.011c-.328-.359-.376-.426-.927-.082-.065.041-.131.081-.2.119a1.261,1.261,0,0,1-.139.056c-.2-.072-.417-.143-.627-.238a1.1,1.1,0,0,0-.532-.083.817.817,0,0,1-.745-.377,1.034,1.034,0,0,0-.427-.239.927.927,0,0,0-.275-.025.806.806,0,0,1-.883.034l-.433-.791-.232.2-.354-.176.008-.013a2.09,2.09,0,0,1-.41-.186c-.385-.283-.756-.584-1.138-.882a.389.389,0,0,1-.531-.2.677.677,0,0,0-.115-.157.756.756,0,0,1-.239-.761.762.762,0,0,0-.027-.269,2.8,2.8,0,0,1-.775-.2,2.4,2.4,0,0,1-.487-.536,2.42,2.42,0,0,0-.2-.7,1.976,1.976,0,0,0-.536-.4,1.693,1.693,0,0,0-.436-.751.634.634,0,0,1-.12-.2,28.057,28.057,0,0,1-1.4-2.959,9.863,9.863,0,0,1-.272-1.012c-.046-.189-.071-.382-.112-.617a3.907,3.907,0,0,0,.436-1.459l-.366-.3-.359.019.039-.539-.559-.392-.057.1-.473-.506a.66.66,0,0,1,.12-.659.854.854,0,0,0-.029-1.2.725.725,0,0,1-.047-.095,1.609,1.609,0,0,1,.5-1.041,3.025,3.025,0,0,0,.545-.8,4.321,4.321,0,0,1,.364-.555.668.668,0,0,1,.274-.473.882.882,0,0,0,.346-.559l-.312-.481v-.371a2.839,2.839,0,0,0,.563-1.124,4.087,4.087,0,0,0,.51-.659,2.527,2.527,0,0,1,.447-.531.874.874,0,0,0,.286-.688,3.418,3.418,0,0,1,.939-1.465l.118.061c.12-.143.23-.3.364-.431a10.559,10.559,0,0,1,1.028-1.044,6.267,6.267,0,0,0,.647-.666,4.119,4.119,0,0,1,.318-.28,3.389,3.389,0,0,0,.91-1.058c.1-.027.2-.025.237-.073.071-.083.188-.142.226-.223a2.342,2.342,0,0,1,.8-.778,9.024,9.024,0,0,0,1.218-1.027c.316-.359.614-.735.917-1.1.1-.126.2-.258.32-.416a2.719,2.719,0,0,0,.355-.259c.315-.31.612-.638.928-.947a.722.722,0,0,1,1.145.087.751.751,0,0,0,1,.308,1.071,1.071,0,0,1,.724-.053,1.255,1.255,0,0,0,1.235-.467,2.037,2.037,0,0,1,1.353.227c.186-.109.376-.217.563-.328.067-.04.129-.089.2-.129a.908.908,0,0,1,1.287.265,3.849,3.849,0,0,0,.278.311c.424.009.547-.343.812-.524a1.284,1.284,0,0,1,1.079.314l.133.973.2.1.322-.119,1-.783.63.107a5.921,5.921,0,0,0-.139.824,7.279,7.279,0,0,0,.1.914c-.064.257-.064.257.214.624l.337.135a.472.472,0,0,0-.055.161,1.067,1.067,0,0,0,.083.233l-.776,1.241.134.073a2.911,2.911,0,0,0,.336-.171,1.762,1.762,0,0,0,.229-.2,1.4,1.4,0,0,1,1.039-.1.855.855,0,0,1,.507.378,1.342,1.342,0,0,1-.133.809l.245.44a1.905,1.905,0,0,0,.778,2.463.87.87,0,0,1-.16.25,1.052,1.052,0,0,0-.275.46.321.321,0,0,0,.182.45c.141.065.288.113.422.165a.629.629,0,0,1,.05.778,1.662,1.662,0,0,0-.3,1.175.776.776,0,0,1-.015.121c-.078.073-.179.17-.283.265a2.512,2.512,0,0,0-.233.2,10.66,10.66,0,0,1-1.306,1.106c-.227.192-.456.384-.69.568-.346.272-.7.535-1.045.807-.122.095-.235.2-.351.3-.543.483-1.093.959-1.625,1.454-.284.266-.528.574-.8.85-.173.174-.368.323-.562.492-.191,0-.374.013-.554,0a1.414,1.414,0,0,1-.447-.1,1.829,1.829,0,0,0-1.132-.177,1.222,1.222,0,0,1-.379-.051l.08-.295ZM290.435,60.7a.952.952,0,0,1,.618,1.073l-.592.8a2.682,2.682,0,0,0,.584,1.052.849.849,0,0,0,.157-.073c.154-.118.305-.241.456-.363a4.086,4.086,0,0,0,.473-.4c.129-.144.37-.119.449-.322.468-.193.694-.642,1.079-1,.049-.025.15-.08.253-.133a.931.931,0,0,1,.6-.119c.278.045.562.055.769.073.6-.382,1-.888,1.564-1.172a3.464,3.464,0,0,0,1.362.15c.115,0,.231-.033.346-.043.177-.014.354-.022.532-.032v.041l-.307.05.849.2c.416-.272.607-.73,1.06-.9.114-.041.07-.167.01-.255.276-.4.266-.528-.07-.874-.046-.046-.1-.088-.137-.138-.055-.067-.1-.141-.173-.239l.4-.393v-.363l-.26-.151-.243.1a.79.79,0,0,1-.48-.353,2.238,2.238,0,0,0-.462-.462c-.438-.39-.813-.824-.572-1.485a.855.855,0,0,0,.013-.155c0-.019.025-.038.034-.051h.067l.513-.582-.15-.081c-.064-.3.254-.342.337-.58-.415.136-.671.527-1.108.548l-.46-.11c-.074.105-.141.262-.336.125a.335.335,0,0,0,.034-.454l-.358-.306.056-.558a1.162,1.162,0,0,0-.9-.68l.33-.05-.194-.211.061-.275-.2-.362-.426.231a1.213,1.213,0,0,1-.812-.131l-.331.081a6.843,6.843,0,0,1-.522.467c-.158.113-.249.318-.476.348l-.109.322c-.307-.025-.572.253-.889.138-.532-.484-.577-.516-.744-.52l-.278.1c-.23.3-.46.553-.642.842a4.367,4.367,0,0,0-.289.68l.135.328c-.25-.019-.121-.239-.2-.3l-.4,1.146c-.072.09-.281.208-.182.486l.224.173.327.05.26,1.5-.691,1.147c.051.447.513.566.547.973a1.912,1.912,0,0,1-.388.811A.672.672,0,0,0,290.435,60.7Zm.644,6.884c.042-.033.065-.047.083-.065.2-.2.412-.4.606-.607a.924.924,0,0,1,.636-.329,1.092,1.092,0,0,0,.275-.1c-.2-.388-.507-.52-.8-.3a12.446,12.446,0,0,0-1.064.963c-.066.064-.079.184-.113.267C290.851,67.578,290.851,67.578,291.079,67.583Z" transform="translate(-27.156 -33.15)" fill="#6468e6"/>
      <path id="Path_8" data-name="Path 8" d="M180.918,73.935l-.34-.081-.386.149-.056-.223.253-.171-.171-.288-.371-.142c.064-.171-.246-.25-.111-.494l.215.179a.333.333,0,0,0,.021-.093c-.009-.11-.023-.218-.038-.351l-.139.078h-.625a1.125,1.125,0,0,1-.5-.358c-.143-.232-.038-.438.059-.671l.214-.118-.082-.179a2.643,2.643,0,0,1,.7-.96c-.039.23-.058.4.138.505l.11-.3.234.1.015-.285-.173.093-.08-.158-.121.047c-.177-.125-.085-.359.223-.574l.228.208h.146l-.114.281.053.03.2-.189c-.018-.217-.113-.4.085-.553l.282.111c-.112-.23-.274-.2-.415-.246l-.1.23-.094-.05-.066.137-.192-.049.126-.436c-.169,0-.241.109-.32.2-.271.313-.54.626-.805.944-.1.122-.19.258-.273.374h-.363c-.125-.167-.409-.157-.474-.406-.035-.135-.059-.272-.089-.409l.683-.983a.892.892,0,0,0,.122-.027.742.742,0,0,0,.112-.066l.138-.552a3.051,3.051,0,0,1,.351-.424c.128-.109.2-.315.427-.28.061-.138.183-.28.173-.411-.029-.362.2-.562.412-.78a.505.505,0,0,0,.083-.08c.039-.065.069-.136.115-.232l-.186-.182c-.221.032-.484.318-.708.721-.122.079-.233.142-.336.217a.783.783,0,0,1-1.064.066c-.017-.015-.048-.013-.073-.016a.24.24,0,0,0-.041,0l.089-.858-.049-.008a3.122,3.122,0,0,0,.242-.434.838.838,0,0,0-.066-.839,4.1,4.1,0,0,1-.26-.49c.352-.438.448-1.021.889-1.393a1.141,1.141,0,0,0-.016-1.137l.125-.353-.142-.254A4.477,4.477,0,0,0,179.215,60l.239.024c.171-.7.754-1.085,1.21-1.58l.026-.231.332-.479-.183-.513.153-.085-.2-.307a1.754,1.754,0,0,0,.122-.16,2.078,2.078,0,0,0,.1-.2h.136a5.094,5.094,0,0,1,.631-.937.956.956,0,0,0,.272-.041c.087-.041.229-.139.218-.183-.042-.177.094-.249.179-.315a13.216,13.216,0,0,0,1.3-1.324,6.894,6.894,0,0,0,.587-.714c.053-.071.125-.127.184-.193.075-.086.149-.174.219-.262a2.8,2.8,0,0,1,.241-.3,5.534,5.534,0,0,0,.871-1.087.324.324,0,0,1,.046-.064c.452-.415.75-.96,1.17-1.4a1.207,1.207,0,0,1,.206-.157l.56-.887.05.121.162-.086a.412.412,0,0,0,.536.024.964.964,0,0,1,.369-.093c.322-.071.488-.363.774-.547.4-.058.707.261,1.047.378l.487-.336.12-.3.031.024.779-.867c.179.059.326.11.473.155a1.072,1.072,0,0,1,.407.206,1.562,1.562,0,0,0,.458.2,1.878,1.878,0,0,0,.743-.529.849.849,0,0,1,.582-.388c.082.014.184.029.285.048a.776.776,0,0,1,.44.216,2.751,2.751,0,0,0,.443.314c.379-.083.521-.4.808-.6a1.677,1.677,0,0,1,.949.281c.182.1.165.326.218.5a1.214,1.214,0,0,1,.021.289.225.225,0,0,0,.3.056,1.944,1.944,0,0,0,.288-.2.582.582,0,0,1,.5-.155,1.6,1.6,0,0,1,.783.322c.183-.015.382.106.535-.072l.6-.66a7.286,7.286,0,0,1,1.013.32l.121.4c-.025.33-.187.547-.145.819a.7.7,0,0,0,.466-.295l.561.094c.1.219.178.408.267.592a.769.769,0,0,1,.139.59l-.1.043.037.263-.158.05c-.15.334-.334.668-.088,1.066.078.018.163.042.251.059a.707.707,0,0,1,.6.882,4.176,4.176,0,0,1-1.027,1.93,3.468,3.468,0,0,0-.836,1.474,3.7,3.7,0,0,1-.258.561c-.067.139-.139.275-.21.412a.623.623,0,0,1-.094.17,3.129,3.129,0,0,0-.619.916,1.33,1.33,0,0,1-.369,1.5,4.181,4.181,0,0,0-.352.416,3.3,3.3,0,0,1-1.1,1.021l-.591-.23c-.363-.276-.181-.662-.4-.933a1.367,1.367,0,0,1-.95-.358v-.313l-.221-.3a2.511,2.511,0,0,0-.435.062.688.688,0,0,1-.907-.257,2.748,2.748,0,0,1,.274-1.617c.1-.206.174-.43.251-.626a.252.252,0,0,0-.345-.2c-.112.027-.217.086-.329.114a.594.594,0,0,1-.779-.674c.015-.179.019-.361.046-.539.017-.114.031-.27.106-.324.221-.163.2-.444.372-.627l-.11-.21c-.16-.009-.293-.072-.452.032-.142.091-.3-.014-.425-.114l-.5-.4c0-.079.007-.208,0-.334a3.117,3.117,0,0,0-.056-.321.574.574,0,0,0-.521,0,1.469,1.469,0,0,1-.819.082,1.186,1.186,0,0,0-.129-.831h-.486a1.411,1.411,0,0,1-.884.519,1.245,1.245,0,0,1-.731-.348,1.221,1.221,0,0,0-.393-.187.892.892,0,0,1-.744.2l-.6.169-1.59,1.848c-.026.009-.119.009-.158.056a3.453,3.453,0,0,0-.806,1.116,2.383,2.383,0,0,1-.347.522,1,1,0,0,0,.19.8,11.823,11.823,0,0,1-.624,1.515.332.332,0,0,0,.284.336,1.28,1.28,0,0,1,.7.511,1.105,1.105,0,0,1-.167.827,8.937,8.937,0,0,0-.572,1.233c-.015.046-.025.094-.041.153.192.013.185-.179.3-.23a.973.973,0,0,1,.953.016l.417.552a11.381,11.381,0,0,1-.933,1.8,2.554,2.554,0,0,0-.2.329c-.359.648-.739,1.282-1.159,1.893-.138.2-.257.417-.38.628a.262.262,0,0,0,.031.348c.321-.162.463-.507.706-.744a6.452,6.452,0,0,0,.65-.867c.2-.281.409-.563.622-.858a.9.9,0,0,1,1.091.495c-.065.532-.5.889-.652,1.381a.507.507,0,0,0,.489.377.794.794,0,0,1,.45.2l.155.35a1.94,1.94,0,0,1-.34.824c.1.452.529.622.858.879l-.1.137.129.09a1.261,1.261,0,0,1-.39.65l.224.408c.312.055.665.031.844.377a1.445,1.445,0,0,1-.607,1.154l-.61,1.393c.015.109.042.206.182.2l.678-.829.32-.364-.037-.039.206-.1-.215-.184c.326-.133.444-.532.839-.472a1.164,1.164,0,0,1,.831.355v.755a1.148,1.148,0,0,0,.829.218c.4.138.2.6.5.777a.529.529,0,0,0,.337-.245c.286-.368.587-.724.887-1.082a3.424,3.424,0,0,1,.248-.238l.77.1.427.567,1.041.138.186.207c.112.356-.293,1.08-.82,1.44a2.119,2.119,0,0,1-.432.719,3.186,3.186,0,0,0-.569.817,1.076,1.076,0,0,0-.042.235l.634-.666.127-.009a1.258,1.258,0,0,0,.3-.807c.33.209.383.2.607-.105a.832.832,0,0,1,.238-.254.951.951,0,0,0,.48-.63c.209-.287.524-.114.755-.281l.586.323c.319-.018.425-.348.671-.486a1.943,1.943,0,0,0,.561-.683,6.185,6.185,0,0,0,.4-.774l.079.254.079-.247a1.524,1.524,0,0,1,.764.121c.077.021.134.111.2.17l.356.324-.417.515.15.126c.088-.316.344-.4.534-.558a3.211,3.211,0,0,0,.865-.94.4.4,0,0,1,.278-.232c.139-.04.241-.216.338-.358l.305-.131.051-.6a4.5,4.5,0,0,0,1.788-.778c.284.071.18.281.2.491a8.629,8.629,0,0,1-1.081,1.029,7.412,7.412,0,0,0-1.119,1c-.329.34-.624.714-.937,1.071a2.108,2.108,0,0,1-.246.249c-.138.112-.306.19-.329.4-.006.051-.077.1-.128.142a5.094,5.094,0,0,0-.75.914c-.082.1-.162.194-.246.29-.034.038-.082.064-.113.1-.2.262-.2.263-.51.265l.137.347a8.235,8.235,0,0,0-.868,1.1c-.328.585-.84,1.019-1.155,1.6l-.2-.01.04.2c-.192.276-.376.574-.593.845a.7.7,0,0,1-.686.287.613.613,0,0,1-.524-.49c-.03-.136-.162-.25-.259-.391.192-.326.379-.648.571-.969.054-.09.058-.088.057-.4-.658.385-1,1.061-1.558,1.521l-.054.215c-.4.209-.5.712-.915.92a.982.982,0,0,0-.34.409c-.174.295-.375.615-.84.514-.067-.04-.153-.1-.246-.143a.535.535,0,0,0-.724.17,2.9,2.9,0,0,1-.3.355c-.142.128-.306.23-.468.35-.449-.251-.69-.7-1.037-1.036l-.338.107-.433.455c-.566-.067-.808-.482-1.058-.946l-.728.26-.064-.3a3.461,3.461,0,0,1-.466-.169,3.826,3.826,0,0,1-.417-.291,1.606,1.606,0,0,1-.424.671l-.275-.208c-.234.139.024.246,0,.409l-.323.026a1.02,1.02,0,0,1-.013-.177.926.926,0,0,1,.045-.158l-.307-.21-.224.109a1.156,1.156,0,0,0-1.031-.778l-.4-.7.114-.055.264-.571-.143-.516-.189.123-.328-.375.067-.291-.339.079-.122-.255-.093.035.355-.632-.271-.361-.346.5a.273.273,0,0,1-.123.36c-.177-.071-.335.15-.505.007l-.151.49c-.167-.372-.626-.487-.67-.925l.184-.046-.03-.142a.333.333,0,0,0,.2-.432l.422-.394-.153-.15v-.061l.582-.227v-.143h.327l-.1-.44.181-.128-.163-.233.277-.227-.211-.316a2.934,2.934,0,0,1-.053.3c-.008.029-.057.045-.117.086l-.131-.264-.151.383.111.1,0,0-.19.032-.13-.183-.393.473.135.28-.2.178Zm3.228-1.81c.243.034.011.193.1.287l.143-.041a2.1,2.1,0,0,1,.21-.354.536.536,0,0,0,.163-.436A2.744,2.744,0,0,0,184.145,72.125Zm-1.252-.849c-.257.4-.262.424-.2.753l.344-.255Zm-2.8-2.221c.289-.21.527-.366.494-.73-.226.022-.3.2-.434.288Zm-.219-8.843c.051-.086,0-.243.17-.249v-.117H179.8a1.74,1.74,0,0,1-.171.243,1.569,1.569,0,0,1-.241.167l.114.251.243-.368Z" transform="translate(-41.856 -33.173)" fill="#6468e6"/>
      <path id="Path_9" data-name="Path 9" d="M137.243,48.074l.026,1.112-.114-.159-.182.272a.443.443,0,0,0,.2.422c.154.115.292.251.451.391l.1-.054.1.222-.527,1.108-.043-.066a11.793,11.793,0,0,0-.8,1.589c.334-.051.579.16.865.257l.09-.17.095.3.18.135a1.582,1.582,0,0,1-.1.921l.127.146c0,.029-.01.065-.018.1-.055.281,0,.4.246.482.208.067.425.105.626.154a.98.98,0,0,0,.767-.962l.083.267c.07-.134.133-.273.212-.4.115-.186.242-.367.368-.547.392-.564.772-1.138,1.183-1.689.3-.4.641-.783.971-1.165a1.163,1.163,0,0,1,.262-.176l.561.242a1.208,1.208,0,0,0,.654-.427c.247-.318.53-.606.8-.906a1.8,1.8,0,0,0,.21-.23,1.379,1.379,0,0,1,.936-.628,1.7,1.7,0,0,0,.563-.327,1.775,1.775,0,0,0,.257-.27,1.291,1.291,0,0,0,.817-.518.583.583,0,0,1,.715-.223c.105.032.208.072.314.109l-.075.105.273-.034a1.205,1.205,0,0,1,.212.174,1.562,1.562,0,0,1,.138.277l.326.038c.11-.08.218-.151.319-.233a.931.931,0,0,1,.616-.2,4.324,4.324,0,0,1,.82.054h-.953c.211.113.474.033.636.217a5.431,5.431,0,0,1,.4.587c.233-.131.448-.269.678-.378.266-.129.442.186.681.153l.467.385c.149.255.01.524.032.8a1.549,1.549,0,0,0-.516.853c.173.306.642.377.672.834a15.3,15.3,0,0,1-1.374,1.888,8.207,8.207,0,0,0-.536.715.282.282,0,0,0-.054.345,6.06,6.06,0,0,0,.971-.807c.311-.288.646-.548.955-.809a2.479,2.479,0,0,0,.874.057,4.851,4.851,0,0,0-.184,1.013,5.372,5.372,0,0,0,.238,1.055,1.5,1.5,0,0,0-.8,1.008l.221.535c.006.264-.227.451-.436.6a5.764,5.764,0,0,0-.892.914c-.487.522-.972,1.047-1.48,1.548a2.152,2.152,0,0,1-.526.287l-.55-.169c-.48.082-.658.567-1.053.794-.062-.031-.127-.069-.2-.1a2.054,2.054,0,0,0-.9-.218c-.325.011-.65,0-.945,0l-.535-.364-.162-.859c-.52.016-.78-.355-1.027-.768a.969.969,0,0,1,.264-.913c.3-.4.6-.812.916-1.2.186-.23.41-.428.614-.646a.308.308,0,0,0,.079-.222c-.075.032-.189.045-.219.1a.944.944,0,0,1-.7.48,1.444,1.444,0,0,1-.872-.1c-.121-.123-.074-.382-.386-.4-.1.042-.255.1-.408.171-.184.082-.366.171-.54.254l.235.051a.357.357,0,0,1-.067.031.7.7,0,0,1-.707-.319,1.746,1.746,0,0,0-1.1-.607c-.3.139-.451.431-.679.638a4.146,4.146,0,0,0-.56.64c-.146.2-.366.369-.4.652a.431.431,0,0,1-.142.227c-.291.287-.591.567-.888.849a.307.307,0,0,0-.03.024c-.3.375-.6.746-.891,1.124-.119.154-.215.326-.331.48a.606.606,0,0,0-.086.752,1.465,1.465,0,0,1,.107.414,2.884,2.884,0,0,0-.555,1.155c.2.219.093.5.056.77a3.016,3.016,0,0,1-.117.417.837.837,0,0,1-.252.424.241.241,0,0,0-.08.3c.024-.037.037-.059.053-.08s.042-.056.073-.1l.45.674c.083.322-.232.514-.231.753l-.635.758-.046.633.592.207.072.356.055-.415.5.528c.029.259-.216.487-.123.759.2.121.2.121.539.13l.056.111.179-.022c.275.1.28.382.433.6-.186.25-.371.515-.574.767-.186.233-.4.444-.587.676a2.513,2.513,0,0,0-.211.383l-.048-.266-.217.129v.213L136.2,71.2a.83.83,0,0,1-.384.786.554.554,0,0,0-.121.675l.318-.121.315-.536.16.237.6-.125.04.447A3.643,3.643,0,0,0,136.485,74l.3.667.277-.017.3.181.248-.043a.912.912,0,0,1,.432.66l-.23.371c.2.286.518.153.7.3l.464.328a1.907,1.907,0,0,1-.3.948,1.036,1.036,0,0,0-.091.323l1.173.607c-.139.368-.067.75-.262,1.048a.744.744,0,0,1-.866,0,.842.842,0,0,0-.577-.087l-.407.291a1.666,1.666,0,0,1-.707.784,2.8,2.8,0,0,1-.4,0,2.513,2.513,0,0,1-.378-.113,1.789,1.789,0,0,0-.57-.64,1.757,1.757,0,0,0-.569.783H133.65l.066-.127-.168-.1.016-.278-.276-.054c-.083.152-.23.254-.234.48l-.86.2-.424-.131a1.319,1.319,0,0,1-.688.026,4.965,4.965,0,0,0-1.008.026c-.374.033-.744.1-1.067.143l-1.462-.194c-.1-.013-.1-.009-.243-.155,0-.181.141-.271.251-.37a2.939,2.939,0,0,0,.607-.842,5.808,5.808,0,0,1,.835-1.25,3.655,3.655,0,0,0,.9-1.47,1.926,1.926,0,0,1,.408-.695,6.034,6.034,0,0,0,.889-1.121,3.765,3.765,0,0,1,.643-.726l.28.155-.069-.436c.105-.168.157-.4.388-.448a2.17,2.17,0,0,1,.179-.4c.262-.361.54-.711.812-1.065l-.293-.107c-.214.038-.289.258-.385.451a.782.782,0,0,1-.544.487c-.182.26-.329.5-.508.721a1.932,1.932,0,0,0-.291.454,4.772,4.772,0,0,1-.423.786,4.25,4.25,0,0,1-.458.46.858.858,0,0,1-1.035.089c-.041-.113.059-.216.118-.327a2.088,2.088,0,0,0,.259-1.005c0-.4.053-.8.085-1.2a2.2,2.2,0,0,0-.063-.767.491.491,0,0,1-.021-.114c-.03-.726-.066-1.452-.086-2.178a1.352,1.352,0,0,1,.331-.93c.167-.2.33-.4.516-.627l.015-.3a1.334,1.334,0,0,1-.081-.106,3.35,3.35,0,0,1-.233-.393.536.536,0,0,1,.138-.66c.208-.213.348-.486.692-.526l-.051-.358a.586.586,0,0,1,.393-.346l.285-.464c.021-.033.059-.063.063-.1a1.654,1.654,0,0,1,.447-.893l-.2.091-.1-.141a2.452,2.452,0,0,1-.575.674.5.5,0,0,0-.158.262.832.832,0,0,1-.867.585c-.078,0-.155-.007-.29-.014l-.4-.53-.065.048v-.558a.865.865,0,0,0,.4-.784l-.458-.372-.34-.583c.133-.25.264-.486.384-.728a.992.992,0,0,0,.072-.259,2,2,0,0,1,.217-.657,1.915,1.915,0,0,0,.126-.463c-.095-.11-.158-.192-.23-.265a.993.993,0,0,1-.248-1.173c.109-.25.23-.5.362-.735a1.425,1.425,0,0,1,.23-.257,2.507,2.507,0,0,0,.283-.312c.351-.558.738-1.089,1.131-1.618a3.219,3.219,0,0,0,.207-.386c-.123.047-.189.1-.242.087-.171-.032-.254.07-.353.181-.307.347-.618.692-.944,1.024a1.447,1.447,0,0,1-.327.21c-.272.024-.425-.174-.649-.133a2.9,2.9,0,0,1-.077-1.185.732.732,0,0,1,.047-.182.62.62,0,0,0-.022-.687c.047.015.118.016.134.047a.965.965,0,0,1,.062.226.745.745,0,0,0,.361-.529l-.473-.072-.168-.173a1.049,1.049,0,0,1-.038-.117c-.054-.423-.114-.845-.158-1.269-.023-.219,0-.444-.03-.663a1.79,1.79,0,0,0-.832-1.364l.179-.355L127.7,50l-.382-.144c-.109-.141-.242-.3-.354-.466a.564.564,0,0,1,.087-.832c.255-.259.518-.51.769-.771.086-.089.218-.154.208-.319l1.224-.223a1.271,1.271,0,0,0,1.289-.111,4.491,4.491,0,0,1,.44-.249.545.545,0,0,1,.559,0,4.917,4.917,0,0,0,1.381.455c.133.031.262.083.462.149l.144-.026.135.313.165-.237c.09-.011.2-.027.319-.041.021-.015.05-.023.063-.043a.566.566,0,0,1,.69-.216,1.271,1.271,0,0,1,.69.308.486.486,0,0,0,.6.063c.214.059.371.105.53.146C136.948,47.809,137.165,47.889,137.243,48.074Z" transform="translate(-49.11 -33.135)" fill="#6468e6"/>
      <path id="Path_10" data-name="Path 10" d="M316.76,48.074l.026,1.112-.114-.159-.182.272a.443.443,0,0,0,.2.422c.154.115.291.251.451.391l.1-.054.1.222-.527,1.108-.043-.066a11.789,11.789,0,0,0-.8,1.589c.332-.051.579.16.864.257l.091-.17.094.3.182.135a1.6,1.6,0,0,1-.1.921l.127.146c-.006.029-.01.065-.018.1-.055.281,0,.4.246.482.207.067.424.105.626.154a.978.978,0,0,0,.766-.962l.085.267c.07-.134.133-.273.213-.4.115-.186.242-.367.368-.547.392-.564.772-1.138,1.183-1.689.3-.4.641-.783.971-1.165a1.181,1.181,0,0,1,.26-.176l.562.242a1.212,1.212,0,0,0,.654-.427c.247-.318.53-.606.8-.906a1.8,1.8,0,0,0,.21-.23,1.379,1.379,0,0,1,.936-.628,1.7,1.7,0,0,0,.563-.327,1.774,1.774,0,0,0,.257-.27,1.288,1.288,0,0,0,.816-.518.583.583,0,0,1,.715-.223c.106.032.209.072.315.109l-.077.105.274-.034a1.2,1.2,0,0,1,.213.174,1.643,1.643,0,0,1,.138.277l.326.038c.11-.08.218-.151.318-.233a.933.933,0,0,1,.616-.2,4.33,4.33,0,0,1,.822.054h-.953c.211.113.474.033.636.217a5.436,5.436,0,0,1,.4.587c.233-.131.448-.269.676-.378.267-.129.443.186.681.153l.468.385c.149.255.01.524.032.8a1.549,1.549,0,0,0-.516.853c.173.306.641.377.672.834a15.3,15.3,0,0,1-1.375,1.888,8.21,8.21,0,0,0-.536.715.282.282,0,0,0-.054.345,6.06,6.06,0,0,0,.971-.807c.31-.288.646-.548.955-.809a2.48,2.48,0,0,0,.874.057,4.78,4.78,0,0,0-.184,1.013,5.375,5.375,0,0,0,.238,1.055,1.5,1.5,0,0,0-.8,1.008l.221.535c.006.264-.229.451-.436.6a5.824,5.824,0,0,0-.893.914c-.486.522-.971,1.047-1.48,1.548a2.125,2.125,0,0,1-.524.287l-.551-.169c-.479.082-.658.567-1.053.794-.061-.031-.126-.069-.194-.1a2.054,2.054,0,0,0-.9-.218c-.324.011-.65,0-.945,0l-.535-.364-.163-.859c-.519.016-.779-.355-1.027-.768a.972.972,0,0,1,.265-.913c.3-.4.6-.812.916-1.2.186-.23.41-.428.614-.646a.308.308,0,0,0,.079-.222c-.075.032-.19.045-.219.1a.944.944,0,0,1-.706.48,1.44,1.44,0,0,1-.871-.1c-.121-.123-.074-.382-.386-.4-.1.042-.256.1-.408.171-.185.082-.367.171-.54.254l.234.051a.323.323,0,0,1-.066.031.706.706,0,0,1-.708-.319,1.743,1.743,0,0,0-1.1-.607c-.3.139-.45.431-.678.638a4.147,4.147,0,0,0-.56.64c-.147.2-.366.369-.4.652a.431.431,0,0,1-.142.227c-.291.287-.591.567-.888.849a.3.3,0,0,0-.03.024c-.3.375-.6.746-.892,1.124-.118.154-.214.326-.33.48a.607.607,0,0,0-.087.752,1.5,1.5,0,0,1,.109.414,2.884,2.884,0,0,0-.555,1.155c.2.219.093.5.056.77a3.023,3.023,0,0,1-.118.417.829.829,0,0,1-.253.424.244.244,0,0,0-.08.3c.024-.037.038-.059.054-.08s.041-.056.073-.1l.45.674c.083.322-.232.514-.232.753l-.634.758-.046.633.592.207.071.356.056-.415.5.528c.027.259-.217.487-.123.759.2.121.2.121.538.13l.057.111.179-.022c.274.1.279.382.432.6-.185.25-.37.515-.572.767-.187.233-.4.444-.587.676a2.514,2.514,0,0,0-.211.383l-.049-.266-.216.129v.213l-.974,1.172a.83.83,0,0,1-.384.786.552.552,0,0,0-.121.675l.318-.121.315-.536.16.237.6-.125.04.447A3.662,3.662,0,0,0,316,74l.3.667.276-.017.3.181.248-.043a.912.912,0,0,1,.432.66l-.23.371c.2.286.518.153.7.3l.465.328a1.907,1.907,0,0,1-.3.948.979.979,0,0,0-.091.323l1.173.607c-.139.368-.067.75-.262,1.048a.744.744,0,0,1-.866,0,.842.842,0,0,0-.577-.087l-.407.291a1.665,1.665,0,0,1-.707.784,2.8,2.8,0,0,1-.4,0,2.474,2.474,0,0,1-.378-.113,1.8,1.8,0,0,0-.57-.64,1.749,1.749,0,0,0-.569.783h-1.372l.067-.127-.168-.1.016-.278-.277-.054c-.083.152-.23.254-.234.48l-.86.2-.425-.131a1.314,1.314,0,0,1-.687.026,4.962,4.962,0,0,0-1.008.026c-.374.033-.744.1-1.067.143l-1.462-.194c-.1-.013-.1-.009-.243-.155,0-.181.141-.271.251-.37a2.913,2.913,0,0,0,.606-.842,5.857,5.857,0,0,1,.836-1.25,3.655,3.655,0,0,0,.9-1.47,1.91,1.91,0,0,1,.408-.695,6.081,6.081,0,0,0,.889-1.121,3.765,3.765,0,0,1,.643-.726l.28.155-.069-.436c.105-.168.157-.4.388-.448a2.1,2.1,0,0,1,.179-.4c.262-.361.539-.711.811-1.065l-.293-.107c-.214.038-.288.258-.384.451a.784.784,0,0,1-.544.487c-.182.26-.329.5-.51.721a1.927,1.927,0,0,0-.29.454,4.772,4.772,0,0,1-.423.786,4.25,4.25,0,0,1-.458.46.858.858,0,0,1-1.035.089c-.041-.113.059-.216.118-.327a2.1,2.1,0,0,0,.259-1.005c0-.4.053-.8.085-1.2a2.2,2.2,0,0,0-.063-.767.492.492,0,0,1-.021-.114c-.031-.726-.066-1.452-.086-2.178a1.356,1.356,0,0,1,.33-.93c.168-.2.331-.4.518-.627l.015-.3c-.035-.046-.062-.074-.081-.106a3.528,3.528,0,0,1-.234-.393.538.538,0,0,1,.139-.66c.207-.213.348-.486.691-.526l-.05-.358a.586.586,0,0,1,.393-.346l.285-.464c.021-.033.059-.063.063-.1a1.638,1.638,0,0,1,.447-.893l-.2.091-.1-.141a2.452,2.452,0,0,1-.575.674.5.5,0,0,0-.158.262.833.833,0,0,1-.868.585c-.077,0-.155-.007-.289-.014l-.4-.53-.065.048v-.558a.867.867,0,0,0,.4-.784l-.458-.372-.34-.583c.133-.25.264-.486.384-.728a.993.993,0,0,0,.072-.259,2.029,2.029,0,0,1,.216-.657,1.918,1.918,0,0,0,.127-.463c-.095-.11-.158-.192-.23-.265a1,1,0,0,1-.249-1.173c.109-.25.231-.5.363-.735a1.425,1.425,0,0,1,.23-.257,2.5,2.5,0,0,0,.283-.312c.351-.558.738-1.089,1.13-1.618a3.047,3.047,0,0,0,.208-.386c-.123.047-.189.1-.242.087-.173-.032-.255.07-.353.181-.307.347-.618.692-.944,1.024a1.448,1.448,0,0,1-.327.21c-.272.024-.426-.174-.649-.133a2.879,2.879,0,0,1-.077-1.185.733.733,0,0,1,.047-.182.62.62,0,0,0-.022-.687c.047.015.118.016.134.047a.966.966,0,0,1,.062.226.74.74,0,0,0,.36-.529l-.472-.072-.168-.173a1.045,1.045,0,0,1-.038-.117c-.055-.423-.114-.845-.159-1.269-.023-.219,0-.444-.029-.663a1.789,1.789,0,0,0-.833-1.364l.179-.355-.55-.478-.382-.144c-.109-.141-.243-.3-.354-.466a.564.564,0,0,1,.087-.832c.255-.259.516-.51.769-.771.086-.089.218-.154.207-.319l1.225-.223a1.271,1.271,0,0,0,1.289-.111,4.491,4.491,0,0,1,.44-.249.545.545,0,0,1,.559,0,4.922,4.922,0,0,0,1.38.455c.134.031.263.083.463.149l.144-.026.135.313.163-.237.319-.041c.022-.015.05-.023.064-.043a.566.566,0,0,1,.69-.216,1.272,1.272,0,0,1,.69.308.485.485,0,0,0,.594.063c.215.059.372.105.531.146C316.465,47.809,316.682,47.889,316.76,48.074Z" transform="translate(-23.516 -33.135)" fill="#6468e6"/>
      <path id="Path_11" data-name="Path 11" d="M232.286,65.99l-.043-.105.281-.347.663-.624.173.111-.245.136.029.3c-.136.245-.359.422-.386.7-.043.11-.113.146-.221.08l-.024-.226Z" transform="translate(-34.08 -30.553)" fill="#6468e6"/>
      <path id="Path_12" data-name="Path 12" d="M181.544,70.941V71c-.216,0-.238.155-.256.371l-.122-.524.145-.234h0a.347.347,0,0,0,.359-.171c.136-.206.281-.407.422-.609l0,0c.121.109.069.234.046.35Z" transform="translate(-41.362 -29.852)" fill="#6468e6"/>
      <path id="Path_13" data-name="Path 13" d="M61.083,53.376l.137-.152.088.32a1.9,1.9,0,0,1-.238.329.621.621,0,0,0-.246.5l-.295.329-.008.006c-.147-.171-.069-.34.025-.491a1.875,1.875,0,0,1,.332-.412A.573.573,0,0,0,61.083,53.376Z" transform="translate(-58.574 -32.22)" fill="#6468e6"/>
      <path id="Path_14" data-name="Path 14" d="M226.145,54.05c0,.165-.131.241-.229.337s-.208.184-.313.274l-.118-.022c.1-.427.482-.652.658-1.013l.353-.128C226.415,53.733,226.138,53.8,226.145,54.05Z" transform="translate(-35.044 -32.181)" fill="#6468e6"/>
      <path id="Path_15" data-name="Path 15" d="M188.166,68.423l-.678.829c-.139.007-.167-.09-.182-.2l.147-.019.4-.8C188.01,68.257,188.155,68.235,188.166,68.423Z" transform="translate(-40.487 -30.079)" fill="#6468e6"/>
      <path id="Path_16" data-name="Path 16" d="M268.841,75.8h3.617v.029h-3.6Z" transform="translate(-28.863 -29.002)" fill="#6468e6"/>
      <path id="Path_17" data-name="Path 17" d="M80.374,69.54l.3.29c-.061.24-.176.352-.425.328l-.191-.3Z" transform="translate(-55.777 -29.894)" fill="#6468e6"/>
      <path id="Path_18" data-name="Path 18" d="M299.514,61.709l-.222.3-.384.311-.27-.083c.266-.232.434-.5.748-.577C299.423,61.654,299.471,61.692,299.514,61.709Z" transform="translate(-24.614 -31.017)" fill="#6468e6"/>
      <path id="Path_19" data-name="Path 19" d="M84.034,48.53l-.466.546-.138-.032.2-.692L84,48.41Z" transform="translate(-55.297 -32.914)" fill="#6468e6"/>
      <path id="Path_20" data-name="Path 20" d="M261.108,52.639a1.476,1.476,0,0,1,.187-.182.584.584,0,0,1,.183-.045l-.26.563.04.03-.374.318-.183.061a2.385,2.385,0,0,1,.322-.543A.748.748,0,0,0,261.108,52.639Z" transform="translate(-30.023 -32.335)" fill="#6468e6"/>
      <path id="Path_21" data-name="Path 21" d="M228.47,64.583a.332.332,0,0,1,.23-.336c.19,0,.245.122.3.274l-.217.257Z" transform="translate(-34.618 -30.648)" fill="#6468e6"/>
      <path id="Path_22" data-name="Path 22" d="M320.23,75.96a1.654,1.654,0,0,1,1.119-.058c-.046.065-.071.129-.118.157a.223.223,0,0,1-.15-.011A1.218,1.218,0,0,0,320.23,75.96Z" transform="translate(-21.536 -28.995)" fill="#6468e6"/>
      <path id="Path_23" data-name="Path 23" d="M263.814,58.036c-.173,0-.147-.129-.155-.238l.387-.538.237.035-.158.275A.831.831,0,0,1,263.814,58.036Z" transform="translate(-29.601 -31.644)" fill="#6468e6"/>
      <path id="Path_24" data-name="Path 24" d="M167.974,69.844l.184.038.11.455-.2.106-.182-.146Z" transform="translate(-43.256 -29.85)" fill="#6468e6"/>
      <path id="Path_25" data-name="Path 25" d="M223.145,55.368c.24-.136.267-.425.446-.649l.159.207a1.3,1.3,0,0,0-.523.665.235.235,0,0,1-.234.154h0c-.031-.069-.066-.135.008-.2A2.1,2.1,0,0,0,223.145,55.368Z" transform="translate(-35.404 -32.007)" fill="#6468e6"/>
      <path id="Path_26" data-name="Path 26" d="M105.771,64.783l-.087.3-.319-.747.269.193.443-.291.254.218C106.256,64.781,106.007,64.743,105.771,64.783Z" transform="translate(-52.169 -30.65)" fill="#6468e6"/>
      <path id="Path_27" data-name="Path 27" d="M311.94,63.261c-.206.237-.408.475-.619.707-.067.075-.078.066-.368.059.338-.278.575-.607.9-.838Z" transform="translate(-22.859 -30.799)" fill="#6468e6"/>
    </g>
  </g>
</svg>
