<svg xmlns="http://www.w3.org/2000/svg" width="130.85" height="63.778" viewBox="0 0 130.85 63.778">
  <g id="Group_188" data-name="Group 188" transform="translate(-550.328 -372.745)">
    <path id="Path_423" data-name="Path 423" d="M610.813,435.6a28.37,28.37,0,0,1-6.325.79c-6.457,0-11.2-3.031-11.2-10.279v-.132h-.264c-1.713,3.164-7.116,10.542-21.611,10.542-13.7,0-21.084-7.115-21.084-17.261,0-13.574,12.914-18.976,40.323-18.976H592.5v-3.954c0-8.434-5.139-13.836-15.417-13.836-8.829,0-14.233,3.558-14.233,10.015a7.049,7.049,0,0,0,.66,3.163l-10.938,1.845a18.947,18.947,0,0,1-.79-5.4c0-11.332,9.751-19.37,25.564-19.37,16.867,0,26.75,9.092,26.75,23.456V421.37c0,3.426.922,4.743,3.822,4.743a10.5,10.5,0,0,0,2.24-.263ZM592.5,414.254v-5.93h-1.845c-21.216,0-28.463,3.822-28.463,10.674,0,4.875,3.69,7.774,11.6,7.774C585.907,426.772,592.5,420.052,592.5,414.254Z" fill="#1a1818"/>
    <path id="Path_424" data-name="Path 424" d="M681.178,435.6a28.37,28.37,0,0,1-6.325.79c-6.457,0-11.2-3.031-11.2-10.279v-.132h-.264c-1.712,3.164-7.116,10.542-21.611,10.542-13.7,0-21.084-7.115-21.084-17.261,0-13.574,12.914-18.976,40.323-18.976h1.845v-3.954c0-8.434-5.139-13.836-15.417-13.836-8.829,0-14.232,3.558-14.232,10.015a7.05,7.05,0,0,0,.659,3.163l-10.938,1.845a18.947,18.947,0,0,1-.79-5.4c0-11.332,9.751-19.37,25.564-19.37,16.867,0,26.751,9.092,26.751,23.456V421.37c0,3.426.922,4.743,3.821,4.743a10.5,10.5,0,0,0,2.24-.263Zm-18.317-21.348v-5.93h-1.845c-21.215,0-28.463,3.822-28.463,10.674,0,4.875,3.69,7.774,11.6,7.774C656.272,426.772,662.861,420.052,662.861,414.254Z" fill="#1a1818"/>
  </g>
</svg>
