<svg xmlns="http://www.w3.org/2000/svg" width="158.388" height="86.972" viewBox="0 0 158.388 86.972">
  <g id="Group_187" data-name="Group 187" transform="translate(-546.507 -216.76)">
    <path id="Path_421" data-name="Path 421" d="M603.433,282.121h-36.5l-8.038,21.611H546.507l32.68-86.972h11.991l32.68,86.972H611.471Zm-3.689-9.883-11.729-31.494c-.922-2.5-1.844-5.667-2.766-9.093h-.264c-.923,3.426-1.845,6.589-2.768,9.093l-11.595,31.494Z" fill="#1a1818"/>
    <path id="Path_422" data-name="Path 422" d="M684.47,282.121h-36.5l-8.038,21.611H627.544l32.68-86.972h11.992L704.9,303.732H692.509Zm-3.689-9.883-11.729-31.494c-.921-2.5-1.844-5.667-2.766-9.093h-.264c-.923,3.426-1.845,6.589-2.767,9.093l-11.6,31.494Z" fill="#1a1818"/>
  </g>
</svg>
