<svg xmlns="http://www.w3.org/2000/svg" width="145.343" height="87.763" viewBox="0 0 145.343 87.763">
  <g id="Group_186" data-name="Group 186" transform="translate(-546.507 -72.606)">
    <path id="Path_419" data-name="Path 419" d="M603.433,137.967h-36.5l-8.038,21.611H546.507l32.68-86.972h11.991l32.68,86.972H611.471Zm-3.689-9.883L588.015,96.59c-.922-2.5-1.844-5.667-2.766-9.093h-.264c-.923,3.426-1.845,6.589-2.768,9.093l-11.595,31.494Z" fill="#1a1818"/>
    <path id="Path_420" data-name="Path 420" d="M691.85,159.446a28.336,28.336,0,0,1-6.325.791c-6.457,0-11.2-3.031-11.2-10.279v-.131h-.264c-1.713,3.162-7.116,10.542-21.611,10.542-13.7,0-21.084-7.116-21.084-17.263,0-13.573,12.914-18.975,40.323-18.975h1.845v-3.954c0-8.433-5.139-13.836-15.417-13.836-8.829,0-14.232,3.558-14.232,10.015a7.049,7.049,0,0,0,.659,3.163L633.6,121.363a18.935,18.935,0,0,1-.79-5.4c0-11.332,9.751-19.37,25.564-19.37,16.867,0,26.751,9.092,26.751,23.456v25.169c0,3.426.921,4.743,3.821,4.743a10.435,10.435,0,0,0,2.24-.263ZM673.533,138.1v-5.93h-1.845c-21.216,0-28.463,3.821-28.463,10.674,0,4.875,3.69,7.774,11.6,7.774C666.944,150.617,673.533,143.9,673.533,138.1Z" fill="#1a1818"/>
  </g>
</svg>
